<svg width="22" height="22" viewBox="0 0 22 22" fill="none" xmlns="http://www.w3.org/2000/svg">
<g clip-path="url(#clip0_788_3240)">
<path d="M17.897 13.4942H17.9043C18.4947 13.4942 19.0731 13.4402 19.6332 13.3366L19.5754 13.3457C18.5249 17.1242 15.1149 19.8522 11.0678 19.8522H11.0147H11.0174C6.11967 19.8467 2.1505 15.8776 2.14592 10.9798V10.9789C2.1574 9.05195 2.79074 7.1802 3.95169 5.64218C5.11264 4.10416 6.73914 2.98208 8.58917 2.44291L8.65242 2.42733C8.55223 2.97745 8.50252 3.53558 8.50392 4.09475V4.10116C8.5085 9.28766 12.7114 13.4906 17.897 13.4952H17.8979L17.897 13.4942ZM11.0055 0.430829C10.8963 0.283486 10.7509 0.166829 10.5834 0.0921535C10.4159 0.0174778 10.232 -0.0126871 10.0494 0.00457925H10.054C4.41192 0.546329 0.0311667 5.247 0 10.978V10.9807C0.00733333 17.0628 4.93625 21.9917 11.0174 22H11.0733C16.7961 22 21.4931 17.6128 21.9862 12.0184L21.989 11.9772C22.0048 11.8031 21.9777 11.6277 21.9101 11.4665C21.8425 11.3053 21.7365 11.163 21.6012 11.0522L21.5994 11.0504C21.4629 10.9381 21.3007 10.8615 21.1272 10.8274C20.9538 10.7933 20.7746 10.8029 20.6057 10.8552L20.6131 10.8533L20.1327 10.9963C19.4124 11.2325 18.6588 11.3517 17.9007 11.3492H17.8942C15.9736 11.3471 14.1322 10.5831 12.7741 9.22499C11.416 7.86688 10.652 6.0255 10.6498 4.10483V4.08833C10.6498 3.14416 10.8313 2.24216 11.1613 1.41625L11.1439 1.46483C11.2113 1.29392 11.2337 1.10854 11.2088 0.926501C11.1839 0.744464 11.1126 0.571882 11.0018 0.425329L11.0037 0.428079L11.0055 0.430829Z" fill="#5C5C5F"/>
</g>
<defs>
<clipPath id="clip0_788_3240">
<rect width="22" height="22" fill="white"/>
</clipPath>
</defs>
</svg>
