<svg xmlns="http://www.w3.org/2000/svg" viewBox="0 0 32 32"><defs><style>.cls-1{fill:#231f20;}</style></defs><g id="discount"><path class="cls-1" d="M29,12.29,28,4.6a2.89,2.89,0,0,0-1.19-2,3.16,3.16,0,0,0-2.42-.52l-8,1.5a3.38,3.38,0,0,0-2.07,1.27L3.66,18.88A3.17,3.17,0,0,0,3,21.3a3,3,0,0,0,1.23,2l9,6.19A3.09,3.09,0,0,0,15,30a3.38,3.38,0,0,0,2.68-1.34l10.67-14A3.23,3.23,0,0,0,29,12.29Zm-2.24,1.12-10.66,14a1.28,1.28,0,0,1-1.7.36l-9-6.19A1,1,0,0,1,5,21a1.16,1.16,0,0,1,.25-.9l10.66-14a1.38,1.38,0,0,1,.85-.53l8-1.5L25,4a1.13,1.13,0,0,1,.64.2.92.92,0,0,1,.38.65l1,7.69A1.17,1.17,0,0,1,26.74,13.41Z"/><path class="cls-1" d="M12,17.24a2,2,0,0,0-1.52-.16,2,2,0,0,0-1.2,1,2,2,0,0,0-.16,1.52,2,2,0,0,0,1,1.2A2,2,0,0,0,11,21a2.1,2.1,0,0,0,.56-.08,2,2,0,0,0,1.2-1,2,2,0,0,0,.16-1.52A2,2,0,0,0,12,17.24ZM11,19h0l.48-.88Z"/><path class="cls-1" d="M14.65,12a1,1,0,0,0-.82,1.15l1.35,8a1,1,0,0,0,1,.83h.16a1,1,0,0,0,.83-1.15l-1.35-8A1,1,0,0,0,14.65,12Z"/><path class="cls-1" d="M21,14.24a2,2,0,0,0-1.52-.16,2,2,0,0,0-1.2,1,2,2,0,0,0-.16,1.52,2,2,0,0,0,1,1.2A2,2,0,0,0,20,18a2.1,2.1,0,0,0,.56-.08,2,2,0,0,0,1.2-1,2,2,0,0,0,.16-1.52A2,2,0,0,0,21,14.24ZM20,16h0l.48-.88Z"/></g></svg>