<?xml version="1.0" encoding="utf-8"?>
<!-- Generator: Adobe Illustrator 24.1.1, SVG Export Plug-In . SVG Version: 6.00 Build 0)  -->
<svg version="1.1" id="Layer_1" xmlns="http://www.w3.org/2000/svg" xmlns:xlink="http://www.w3.org/1999/xlink" x="0px" y="0px"
	 viewBox="0 0 500 500" style="enable-background:new 0 0 500 500;" xml:space="preserve">
<style type="text/css">
	.st0{fill:#9D1915;}
	.st1{fill:url(#SVGID_1_);}
	.st2{fill:url(#SVGID_2_);}
	.st3{fill:url(#SVGID_3_);}
	.st4{fill:url(#SVGID_4_);}
	.st5{fill:url(#SVGID_5_);}
	.st6{fill:url(#SVGID_6_);}
	.st7{fill:url(#SVGID_7_);}
	.st8{fill:url(#SVGID_8_);}
	.st9{fill:url(#SVGID_9_);}
	.st10{fill:url(#SVGID_10_);}
	.st11{fill:url(#SVGID_11_);}
	.st12{fill:url(#SVGID_12_);}
	.st13{fill:url(#SVGID_13_);}
	.st14{fill:url(#SVGID_14_);}
	.st15{fill:#FFFFFF;}
	.st16{fill:url(#SVGID_15_);}
</style>
<g>
	<path class="st0" d="M52.47-52.76c0.62-3.25,2.21-8.91,4.29-13.65l11.96,2.75c-1.41,3-2.8,7.66-3.43,10.9
		c-1.57,8.16,2.19,11.99,20.84,11.99c17.9,0,23.73-3.08,24.64-7.83c1.98-10.32-30.97-4.75-27.07-25.06
		c2.09-10.9,12.38-17.65,25.78-17.65c8.32,0,15.98,2.58,21.08,6.41l-7.14,10.74c-5.42-3.83-12.32-6.08-17.06-6.08
		c-4.41,0-8.54,1.58-9.28,5.41c-2,10.41,30.9,5.08,26.95,25.64c-2.51,13.07-14.24,19.98-39.88,19.98
		C62.01-29.2,49.14-35.44,52.47-52.76z M70.27-18.04c0.66-3.41,3.63-5.91,6.88-5.91c3.33,0,5.26,2.5,4.61,5.91
		c-0.66,3.41-3.53,5.83-6.86,5.83C71.65-12.22,69.62-14.63,70.27-18.04z M84.17-18.04c0.66-3.41,3.63-5.91,6.88-5.91
		c3.33,0,5.26,2.5,4.61,5.91c-0.66,3.41-3.53,5.83-6.86,5.83C85.55-12.22,83.52-14.63,84.17-18.04z"/>
	<path class="st0" d="M190.89-54.5c-0.69,3.58-1.62,5.83-2.78,5.83h-5.66c-11.57,0-16.26-5.91-14.65-16.9c-2.46,0.67-5.02,1-7.77,1
		c-2.83,0-5.33-0.42-7.62-1.08l-2.94,15.32c-2.43,12.65-11.66,20.39-24.06,20.81l0.46-11.49c6.38,0.17,9.44-2.33,10.78-9.32
		l7.75-40.37h12.82l-2.59,13.48c2.29,0.67,4.79,1.08,7.62,1.08c2.75,0,5.31-0.33,7.68-1l2.61-13.57h12.82l-4.46,23.22
		c-0.98,5.08,0.19,7.24,5.35,7.24h4.08C191.5-60.25,191.57-58,190.89-54.5z M168.63-102.37c0.66-3.41,3.63-5.91,6.88-5.91
		c3.33,0,5.26,2.5,4.61,5.91c-0.66,3.41-3.53,5.83-6.86,5.83C170-96.54,167.97-98.96,168.63-102.37z M182.53-102.37
		c0.66-3.41,3.63-5.91,6.88-5.91c3.33,0,5.26,2.5,4.61,5.91c-0.66,3.41-3.53,5.83-6.86,5.83C183.9-96.54,181.87-98.96,182.53-102.37
		z"/>
	<path class="st0" d="M207.62-54.5c-0.69,3.58-1.62,5.83-2.78,5.83h-16.73c-1.17,0-1.23-2.25-0.55-5.83c0.67-3.5,1.6-5.74,2.77-5.74
		h16.73C208.23-60.25,208.3-58,207.62-54.5z"/>
	<path class="st0" d="M224.35-54.5c-0.69,3.58-1.62,5.83-2.78,5.83h-16.73c-1.17,0-1.23-2.25-0.55-5.83c0.67-3.5,1.6-5.74,2.77-5.74
		h16.73C224.96-60.25,225.03-58,224.35-54.5z"/>
	<path class="st0" d="M241.08-54.5c-0.69,3.58-1.62,5.83-2.78,5.83h-16.73c-1.17,0-1.23-2.25-0.55-5.83c0.67-3.5,1.6-5.74,2.77-5.74
		h16.73C241.69-60.25,241.76-58,241.08-54.5z"/>
	<path class="st0" d="M257.81-54.5c-0.69,3.58-1.62,5.83-2.78,5.83H238.3c-1.17,0-1.23-2.25-0.55-5.83c0.67-3.5,1.6-5.74,2.77-5.74
		h16.73C258.42-60.25,258.49-58,257.81-54.5z"/>
	<path class="st0" d="M340.1-90.71l-4.48,23.31c-2.4,12.49-9.42,18.73-22.41,18.73c-5.99,0-10.07-1.33-12.57-3.91
		c-3.57,2.58-8.24,3.91-14.24,3.91s-10.07-1.33-12.63-4c-3.59,2.66-8.34,4-14.42,4h-4.33c-1.17,0-1.23-2.25-0.55-5.83
		c0.67-3.5,1.6-5.74,2.77-5.74h3c5.91,0,7.86-1.91,8.88-7.24l2.86-14.9h12.82l-2.88,14.98c-0.4,2.08-0.95,4.08-1.62,5.83
		c1.24,0.92,3.32,1.33,6.32,1.33c6.41,0,8.31-1.67,9.38-7.24l3.66-19.06h12.82l-3.68,19.15c-0.42,2.16-0.95,4.08-1.62,5.83
		c1.22,1,3.24,1.33,6.24,1.33c6.41,0,8.31-1.67,9.38-7.24l4.46-23.22H340.1z"/>
	<path class="st0" d="M368.35-54.5c-0.69,3.58-1.62,5.83-2.78,5.83h-22.31l11.98-62.35h12.82l-9.75,50.78h9.49
		C368.96-60.25,369.02-58,368.35-54.5z"/>
	<path class="st0" d="M385.08-54.5c-0.69,3.58-1.62,5.83-2.78,5.83h-16.73c-1.17,0-1.23-2.25-0.55-5.83c0.67-3.5,1.6-5.74,2.77-5.74
		h16.73C385.69-60.25,385.75-58,385.08-54.5z"/>
	<path class="st0" d="M401.81-54.5c-0.69,3.58-1.62,5.83-2.78,5.83H382.3c-1.17,0-1.23-2.25-0.55-5.83c0.67-3.5,1.6-5.74,2.77-5.74
		h16.73C402.42-60.25,402.48-58,401.81-54.5z"/>
	<path class="st0" d="M455.87-87.22l-7.4,38.54h-49.44c-1.17,0-1.23-2.25-0.55-5.83c0.67-3.5,1.6-5.74,2.77-5.74h8.99
		c-1.02-2.91-1.21-6.24-0.51-9.91c2.46-12.82,14.97-22.47,28.21-22.47C444.34-92.63,450.49-90.38,455.87-87.22z M428.63-60.25h9.24
		l3.81-19.81c-2.25-0.83-3.89-1-5.8-1c-6.58,0-12.12,4.58-13.32,10.82C421.59-65.16,423.91-61.25,428.63-60.25z M433.96-106.2
		c0.77-4,4.14-6.83,7.97-6.83s6.12,2.83,5.35,6.83c-0.77,4-4.14,6.83-7.97,6.83S433.2-102.2,433.96-106.2z"/>
</g>
<g>
	<path class="st0" d="M55.34,614.86h-16.4l14.09-70.43h53.23l-2.72,13.08H66.71L55.34,614.86z M61.78,576.13h33.91l-2.72,13.08
		H59.16L61.78,576.13z"/>
	<path class="st0" d="M126.67,615.67c-4.16,0-8.02-0.96-11.57-2.87c-3.56-1.91-6.41-4.68-8.55-8.3c-2.15-3.62-3.22-7.98-3.22-13.08
		c0-4.56,0.75-8.75,2.26-12.58c1.51-3.82,3.64-7.14,6.39-9.96c2.75-2.82,5.94-5.01,9.56-6.59c3.62-1.58,7.51-2.36,11.67-2.36
		c4.49,0,8.35,0.84,11.57,2.52c3.22,1.68,5.62,4.28,7.19,7.8c1.58,3.52,2.13,8.07,1.66,13.63c-0.34,6.37-1.64,11.96-3.92,16.75
		c-2.28,4.8-5.35,8.5-9.21,11.12C136.65,614.36,132.04,615.67,126.67,615.67z M131.5,602.69c3.08,0,5.82-0.75,8.2-2.26
		c2.38-1.51,4.26-3.59,5.63-6.24c1.37-2.65,2.06-5.75,2.06-9.31c0-3.69-1.09-6.61-3.27-8.75c-2.18-2.15-5.22-3.22-9.11-3.22
		c-3.02,0-5.73,0.75-8.15,2.26c-2.42,1.51-4.31,3.59-5.69,6.24c-1.38,2.65-2.06,5.75-2.06,9.31c0,3.69,1.09,6.61,3.27,8.75
		C124.58,601.62,127.61,602.69,131.5,602.69z M142.27,614.86l2.11-10.77l3.52-16.1l2.11-16.1l2.21-11.17h15.7l-10.77,54.13H142.27z"
		/>
	<path class="st0" d="M191.37,615.67c-4.76,0-9.24-0.54-13.43-1.61c-4.19-1.07-7.43-2.42-9.71-4.02l6.04-11.37
		c2.35,1.54,5.21,2.78,8.6,3.72c3.39,0.94,6.79,1.41,10.21,1.41c3.69,0,6.37-0.47,8.05-1.41c1.68-0.94,2.52-2.21,2.52-3.82
		c0-1.27-0.7-2.23-2.11-2.87c-1.41-0.64-3.19-1.16-5.33-1.56c-2.15-0.4-4.44-0.87-6.89-1.41c-2.45-0.54-4.76-1.29-6.94-2.26
		c-2.18-0.97-3.96-2.38-5.33-4.23c-1.38-1.84-2.06-4.28-2.06-7.29c0-4.09,1.16-7.55,3.47-10.36c2.31-2.82,5.53-4.96,9.66-6.44
		c4.13-1.47,8.8-2.21,14.04-2.21c3.76,0,7.41,0.4,10.97,1.21c3.55,0.81,6.57,1.91,9.06,3.32l-5.63,11.47c-2.55-1.61-5.22-2.7-8-3.27
		c-2.78-0.57-5.45-0.86-8-0.86c-3.69,0-6.36,0.52-8,1.56c-1.64,1.04-2.46,2.3-2.46,3.77c0,1.28,0.69,2.26,2.06,2.97
		c1.37,0.71,3.13,1.28,5.28,1.71c2.15,0.44,4.46,0.91,6.94,1.41c2.48,0.5,4.79,1.24,6.94,2.21c2.15,0.97,3.91,2.35,5.28,4.13
		c1.37,1.78,2.06,4.18,2.06,7.19c0,4.09-1.19,7.56-3.57,10.41c-2.38,2.85-5.62,4.98-9.71,6.39
		C201.26,614.96,196.6,615.67,191.37,615.67z"/>
	<path class="st0" d="M226.68,574.01l2.41-12.07h37.53l-2.42,12.07H226.68z M247.11,615.67c-3.89,0-7.21-0.79-9.96-2.36
		c-2.75-1.58-4.71-3.86-5.89-6.84c-1.17-2.98-1.36-6.52-0.55-10.62l9.36-47.09h15.7l-9.36,46.99c-0.4,2.28-0.17,4.09,0.7,5.43
		c0.87,1.34,2.48,2.01,4.83,2.01c1.07,0,2.16-0.17,3.27-0.5c1.11-0.33,2.13-0.8,3.07-1.41l2.31,11.17
		c-1.95,1.21-4.09,2.05-6.44,2.52C251.8,615.43,249.45,615.67,247.11,615.67z"/>
	<path class="st0" d="M297.62,615.67c-5.63,0-10.51-1.01-14.64-3.02c-4.13-2.01-7.33-4.83-9.61-8.45
		c-2.28-3.62-3.42-7.88-3.42-12.78c0-6.04,1.36-11.42,4.08-16.15c2.72-4.73,6.47-8.47,11.27-11.22c4.79-2.75,10.31-4.13,16.55-4.13
		c5.3,0,9.86,0.99,13.68,2.97c3.82,1.98,6.79,4.73,8.9,8.25c2.11,3.52,3.17,7.73,3.17,12.63c0,1.41-0.08,2.82-0.25,4.23
		c-0.17,1.41-0.39,2.75-0.65,4.02h-44.77l1.61-9.16h35.82l-6.44,2.82c0.54-3.02,0.37-5.55-0.5-7.6c-0.87-2.05-2.28-3.62-4.23-4.73
		c-1.95-1.11-4.29-1.66-7.04-1.66c-3.42,0-6.32,0.82-8.7,2.47c-2.38,1.64-4.18,3.91-5.38,6.79c-1.21,2.88-1.81,6.14-1.81,9.76
		c0,4.16,1.16,7.26,3.47,9.31c2.31,2.05,5.82,3.07,10.51,3.07c2.75,0,5.4-0.44,7.95-1.31c2.55-0.87,4.73-2.11,6.54-3.72l6.54,10.36
		c-3.15,2.48-6.69,4.31-10.62,5.48S301.71,615.67,297.62,615.67z"/>
	<path class="st0" d="M332.03,614.86l10.77-54.13h14.89l-3.12,15.39l-1.41-4.43c2.41-4.36,5.57-7.41,9.46-9.16
		c3.89-1.74,8.55-2.62,13.99-2.62l-2.82,14.49c-0.67-0.07-1.29-0.12-1.86-0.15c-0.57-0.03-1.16-0.05-1.76-0.05
		c-4.63,0-8.4,1.14-11.32,3.42c-2.92,2.28-4.88,5.97-5.89,11.07l-5.23,26.16H332.03z"/>
	<path class="st0" d="M375.39,614.86l10.77-54.13h15.59l-10.77,54.13H375.39z M396.62,553.19c-2.75,0-4.96-0.79-6.64-2.36
		c-1.68-1.58-2.52-3.5-2.52-5.79c0-2.68,0.96-4.91,2.87-6.69c1.91-1.78,4.41-2.67,7.5-2.67c2.75,0,4.98,0.75,6.69,2.26
		c1.71,1.51,2.57,3.37,2.57,5.58c0,2.88-0.96,5.22-2.87,6.99C402.3,552.3,399.77,553.19,396.62,553.19z"/>
	<path class="st0" d="M409.3,635.19c-2.75,0-5.48-0.44-8.2-1.31c-2.72-0.87-4.88-2.01-6.49-3.42l7.24-11.27
		c1.14,1.01,2.43,1.81,3.87,2.42c1.44,0.6,3.03,0.91,4.78,0.91c2.01,0,3.77-0.5,5.28-1.51c1.51-1.01,3-2.72,4.48-5.13l4.33-6.84
		l1.41-1.61l28.57-46.69h15.49l-36.02,57.75c-2.68,4.23-5.25,7.56-7.7,10.01c-2.45,2.45-5.03,4.18-7.75,5.18
		C415.89,634.69,412.78,635.19,409.3,635.19z M421.27,616.98l-12.98-56.24h15.7l9.86,45.28L421.27,616.98z"/>
</g>
<g>
	<linearGradient id="SVGID_1_" gradientUnits="userSpaceOnUse" x1="1675.2819" y1="-436.967" x2="1155.9724" y2="-436.967">
		<stop  offset="0" style="stop-color:#7F1710"/>
		<stop  offset="1" style="stop-color:#BE1818"/>
	</linearGradient>
	<path class="st1" d="M1249.49-444.29l-2.94,14.66h37.87l3.04-14.66H1249.49z M1249.49-444.29l-2.94,14.66h1.42l2.9-14.66H1249.49z"
		/>
	<linearGradient id="SVGID_2_" gradientUnits="userSpaceOnUse" x1="1675.2819" y1="-430.139" x2="1155.9724" y2="-430.139">
		<stop  offset="0" style="stop-color:#7F1710"/>
		<stop  offset="1" style="stop-color:#BE1818"/>
	</linearGradient>
	<path class="st2" d="M1348.95-450.89c-0.4-0.89-0.84-1.72-1.34-2.5l-0.86,4.37l-2.37,18.03l-3.94,18.03l-1.19,6.07
		c2.88-2.64,5.27-5.97,7.17-9.96c2.55-5.38,4.02-11.63,4.39-18.77C1351.33-441.85,1350.71-446.94,1348.95-450.89z M1348.95-450.89
		c-0.4-0.89-0.84-1.72-1.34-2.5l-0.86,4.37l-2.37,18.03l-3.94,18.03l-1.19,6.07c2.88-2.64,5.27-5.97,7.17-9.96
		c2.55-5.38,4.02-11.63,4.39-18.77C1351.33-441.85,1350.71-446.94,1348.95-450.89z"/>
	<linearGradient id="SVGID_3_" gradientUnits="userSpaceOnUse" x1="1675.2819" y1="-449.339" x2="1155.9724" y2="-449.339">
		<stop  offset="0" style="stop-color:#7F1710"/>
		<stop  offset="1" style="stop-color:#BE1818"/>
	</linearGradient>
	<path class="st3" d="M1572.37-449.26l1.58,4.96l2.05-10.09C1574.66-452.9,1573.45-451.2,1572.37-449.26z"/>
	<linearGradient id="SVGID_4_" gradientUnits="userSpaceOnUse" x1="1675.2819" y1="-431.2191" x2="1155.9724" y2="-431.2191">
		<stop  offset="0" style="stop-color:#7F1710"/>
		<stop  offset="1" style="stop-color:#BE1818"/>
	</linearGradient>
	<path class="st4" d="M1391.61-443.17c0,1.43,0.77,2.54,2.31,3.33c1.54,0.78,3.51,1.42,5.91,1.91c2.41,0.49,5,1.02,7.78,1.58
		c2.78,0.57,5.38,1.39,7.78,2.48c2.41,1.1,4.38,2.63,5.92,4.62c1.54,1.99,2.31,4.68,2.31,8.06c0,4.58-1.34,8.47-4,11.66
		c-2.67,3.2-6.3,5.58-10.88,7.16c-4.58,1.58-9.8,2.37-15.66,2.37c-5.34,0-10.35-0.61-15.05-1.81c-4.7-1.2-8.32-2.7-10.87-4.5
		l6.76-12.74c2.63,1.73,5.84,3.12,9.64,4.17c3.79,1.06,7.6,1.58,11.43,1.58c4.14,0,7.14-0.52,9.02-1.58
		c1.88-1.05,2.82-2.48,2.82-4.28c0-1.42-0.79-2.5-2.37-3.22c-1.58-0.71-3.57-1.3-5.98-1.74c-2.4-0.45-4.98-0.98-7.72-1.58
		s-5.34-1.45-7.78-2.54s-4.43-2.66-5.98-4.74c-1.54-2.06-2.3-4.79-2.3-8.17c0-4.58,1.3-8.46,3.89-11.61
		c2.59-3.16,6.2-5.56,10.82-7.22c4.62-1.65,9.86-2.48,15.72-2.48c4.21,0,8.3,0.46,12.29,1.35c3.98,0.9,7.36,2.14,10.14,3.72
		l-6.31,12.85c-2.86-1.8-5.85-3.02-8.96-3.66c-3.12-0.63-6.1-0.95-8.96-0.95c-4.14,0-7.12,0.58-8.96,1.74
		C1392.53-446.22,1391.61-444.82,1391.61-443.17z"/>
	<linearGradient id="SVGID_5_" gradientUnits="userSpaceOnUse" x1="1675.2819" y1="-437.4711" x2="1155.9724" y2="-437.4711">
		<stop  offset="0" style="stop-color:#7F1710"/>
		<stop  offset="1" style="stop-color:#BE1818"/>
	</linearGradient>
	<path class="st5" d="M1462.26-460.18h15.1l-2.7,13.52h-15.1l-4.85,24.34c-0.46,2.56-0.19,4.58,0.78,6.09s2.78,2.26,5.42,2.26
		c1.2,0,2.42-0.18,3.66-0.57c1.24-0.37,2.38-0.9,3.44-1.58l2.59,12.51c-2.18,1.35-4.58,2.29-7.21,2.82
		c-2.63,0.53-5.26,0.79-7.9,0.79c-4.35,0-8.07-0.89-11.15-2.65c-3.08-1.77-5.28-4.32-6.59-7.66c-1.32-3.34-1.53-7.31-0.62-11.9
		l4.86-24.46h-9.37l2.7-13.52h9.34l2.94-14.76h17.58L1462.26-460.18z"/>
	<linearGradient id="SVGID_6_" gradientUnits="userSpaceOnUse" x1="1675.2819" y1="-431.2191" x2="1155.9724" y2="-431.2191">
		<stop  offset="0" style="stop-color:#7F1710"/>
		<stop  offset="1" style="stop-color:#BE1818"/>
	</linearGradient>
	<path class="st6" d="M1344.38-430.99l2.37-18.03l0.86-4.37c-1.69-2.7-3.92-4.78-6.72-6.23c-3.61-1.87-7.93-2.82-12.96-2.82
		c-4.66,0-9.02,0.89-13.08,2.65c-4.06,1.77-7.62,4.23-10.7,7.38c-3.08,3.15-5.46,6.87-7.15,11.16c-1.7,4.28-2.54,8.98-2.54,14.09
		c0,5.7,1.2,10.59,3.6,14.65c2.41,4.06,5.6,7.16,9.58,9.3c3.98,2.14,8.3,3.22,12.96,3.22c6.01,0,11.18-1.46,15.5-4.4
		c1.1-0.75,2.15-1.58,3.14-2.49l1.19-6.07L1344.38-430.99z M1335.2-417.08c-2.66,1.7-5.73,2.54-9.18,2.54c-4.36,0-7.76-1.2-10.2-3.6
		c-2.44-2.41-3.66-5.67-3.66-9.81c0-3.98,0.78-7.46,2.31-10.42c1.54-2.97,3.66-5.3,6.37-6.98c2.7-1.7,5.75-2.54,9.13-2.54
		c4.36,0,7.76,1.2,10.2,3.6c2.44,2.41,3.66,5.68,3.66,9.81c0,3.98-0.77,7.46-2.31,10.42
		C1339.97-421.09,1337.87-418.77,1335.2-417.08z"/>
	<linearGradient id="SVGID_7_" gradientUnits="userSpaceOnUse" x1="1675.2819" y1="-440.347" x2="1155.9724" y2="-440.347">
		<stop  offset="0" style="stop-color:#7F1710"/>
		<stop  offset="1" style="stop-color:#BE1818"/>
	</linearGradient>
	<polygon class="st7" points="1296.26,-465.14 1255.01,-465.14 1250.88,-444.29 1249.49,-444.29 1246.56,-429.64 1247.97,-429.64 
		1242.28,-400.9 1223.91,-400.9 1239.69,-479.79 1299.3,-479.79 	"/>
	<linearGradient id="SVGID_8_" gradientUnits="userSpaceOnUse" x1="1675.2819" y1="-431.219" x2="1155.9724" y2="-431.219">
		<stop  offset="0" style="stop-color:#7F1710"/>
		<stop  offset="1" style="stop-color:#BE1818"/>
	</linearGradient>
	<path class="st8" d="M1349.23-461.54h17.58l-12.06,60.63h-16.67l1.17-5.98c2.88-2.64,5.27-5.97,7.17-9.96
		c2.55-5.38,4.02-11.63,4.39-18.77c0.53-6.23-0.1-11.33-1.86-15.27c-0.4-0.89-0.84-1.72-1.34-2.5L1349.23-461.54z"/>
	<linearGradient id="SVGID_9_" gradientUnits="userSpaceOnUse" x1="1675.2819" y1="-431.219" x2="1155.9724" y2="-431.219">
		<stop  offset="0" style="stop-color:#7F1710"/>
		<stop  offset="1" style="stop-color:#BE1818"/>
	</linearGradient>
	<polygon class="st9" points="1626.36,-461.54 1614.29,-400.9 1596.83,-400.9 1608.89,-461.54 	"/>
	<linearGradient id="SVGID_10_" gradientUnits="userSpaceOnUse" x1="1675.2819" y1="-479.7951" x2="1155.9724" y2="-479.7951">
		<stop  offset="0" style="stop-color:#7F1710"/>
		<stop  offset="1" style="stop-color:#BE1818"/>
	</linearGradient>
	<path class="st10" d="M1613.17-472.64c-1.87-1.76-2.82-3.92-2.82-6.48c0-3,1.07-5.5,3.22-7.49c2.14-1.99,4.94-2.99,8.39-2.99
		c3.08,0,5.58,0.85,7.5,2.54c1.92,1.69,2.87,3.78,2.87,6.26c0,3.23-1.07,5.84-3.21,7.83c-2.14,1.99-4.98,2.98-8.51,2.98
		C1617.53-469.99,1615.05-470.87,1613.17-472.64z"/>
	<linearGradient id="SVGID_11_" gradientUnits="userSpaceOnUse" x1="1675.2819" y1="-419.835" x2="1155.9724" y2="-419.835">
		<stop  offset="0" style="stop-color:#7F1710"/>
		<stop  offset="1" style="stop-color:#BE1818"/>
	</linearGradient>
	<path class="st11" d="M1702.88-461.54l-40.34,64.69c-3.01,4.74-5.88,8.47-8.62,11.22c-2.74,2.74-5.63,4.67-8.68,5.8
		c-3.04,1.13-6.52,1.7-10.42,1.7c-3.08,0-6.14-0.5-9.18-1.46c-3.04-0.98-5.46-2.26-7.27-3.83l8.12-12.62
		c1.27,1.13,2.72,2.02,4.34,2.7c1.62,0.67,3.4,1.02,5.35,1.02c2.26,0,4.23-0.57,5.92-1.7c1.69-1.13,3.36-3.04,5.02-5.74l0.62-0.98
		l-14.03-60.78h17.58l8.99,41.3l25.27-41.3H1702.88z"/>
	<linearGradient id="SVGID_12_" gradientUnits="userSpaceOnUse" x1="1675.2819" y1="-431.2191" x2="1155.9724" y2="-431.2191">
		<stop  offset="0" style="stop-color:#7F1710"/>
		<stop  offset="1" style="stop-color:#BE1818"/>
	</linearGradient>
	<path class="st12" d="M1530.22-459.11c-4.28-2.22-9.39-3.33-15.33-3.33c-6.98,0-13.17,1.54-18.54,4.62
		c-5.38,3.08-9.58,7.26-12.62,12.57c-3.04,5.3-4.56,11.32-4.56,18.09c0,5.48,1.27,10.26,3.83,14.31c2.55,4.06,6.14,7.21,10.76,9.46
		c4.62,2.26,10.09,3.38,16.4,3.38c4.58,0,9.07-0.66,13.46-1.98c4.4-1.31,8.36-3.36,11.89-6.14l-7.32-11.61
		c-2.03,1.81-4.47,3.2-7.33,4.18c-2.86,0.98-5.82,1.46-8.9,1.46c-5.26,0-9.18-1.14-11.78-3.44c-2.31-2.04-3.59-5.03-3.84-8.96h46.38
		c0.3-1.42,0.54-2.93,0.74-4.5c0.18-1.58,0.28-3.16,0.28-4.74c0-5.48-1.18-10.2-3.55-14.14
		C1537.83-453.82,1534.51-456.89,1530.22-459.11z M1527.29-433.58c0.2-1.11,0.31-2.17,0.33-3.16h-30.06
		c0.22-0.73,0.48-1.44,0.78-2.14c1.35-3.23,3.36-5.77,6.02-7.61c2.66-1.84,5.92-2.77,9.75-2.77c3.08,0,5.7,0.62,7.89,1.86
		c2.18,1.24,3.75,3.01,4.74,5.3c0.65,1.54,0.95,3.33,0.89,5.35h6.89L1527.29-433.58z"/>
	<linearGradient id="SVGID_13_" gradientUnits="userSpaceOnUse" x1="1675.2819" y1="-431.671" x2="1155.9724" y2="-431.671">
		<stop  offset="0" style="stop-color:#7F1710"/>
		<stop  offset="1" style="stop-color:#BE1818"/>
	</linearGradient>
	<path class="st13" d="M1598.63-462.44l-3.15,16.23c-0.75-0.07-1.45-0.13-2.09-0.17c-0.64-0.04-1.3-0.06-1.97-0.06
		c-5.18,0-9.42,1.27-12.68,3.83c-3.27,2.55-5.46,6.69-6.59,12.39l-5.86,29.3h-17.58l12.06-60.63h16.68l-1.45,7.15
		c-1.34,1.48-2.54,3.18-3.62,5.13l1.58,4.96l2.05-10.09c2.02-2.24,4.34-3.94,6.97-5.12
		C1587.33-461.46,1592.54-462.44,1598.63-462.44z"/>
</g>
<g>
	
		<linearGradient id="SVGID_14_" gradientUnits="userSpaceOnUse" x1="782.3738" y1="-614.0053" x2="1206.5708" y2="-614.0053" gradientTransform="matrix(0.9932 -0.1167 0.1167 0.9932 509.2397 43.3964)">
		<stop  offset="0" style="stop-color:#7F1710"/>
		<stop  offset="1" style="stop-color:#BE1818"/>
	</linearGradient>
	<path class="st14" d="M1635.65-709.63c6.41,54.55-20.35,105.35-64.33,132.22c-0.01,0.01-0.01,0.01-0.01,0.01
		c-2.23,1.06-4.41,2.07-6.3,2.99c-2.7,1.31-5.61,3.11-9.14,5.12c-5.19,2.97-11.69,6.4-20.74,9.43c-3.82,1.28-21.06,6.92-44.72,9.08
		c-3.56,0.33-19.8,0.76-41.07-0.21c-7.98-0.36-15.99-1.78-23.84-3.39c-9.57-1.97-19.08-4.38-28.45-7.14
		c-7.54-2.22-14.89-5.15-22.25-7.97c-3.3-1.26-6.42-2.99-9.54-4.95c5.39,1.09,10.76,2.32,16.18,3.24c4.64,0.79,9.39,1.01,14.01,1.86
		c11.32,2.08,22.66,2.85,34.06,1.09c2.89-0.45,5.65-1.68,8.85-2.67c-3.74-3.85-7.93-3.78-11.99-3.96
		c-13.98-0.64-27.63-3.3-40.55-8.41c-8.83-3.49-17.48-7.94-25.32-13.29c-8.37-5.71-15.69-12.83-21.96-21.12
		c-6.17-8.17-10.44-17.18-15.13-26.13c-6.2-11.86-14.81-21.73-26.57-28.96c-6.93-4.26-14.42-6.75-21.65-10.07
		c-1.09-0.49-2.42-0.43-3.6-0.75c-13.42-3.66-27.14-4.4-40.98-4.26c-6.36,0.06-12.73-0.2-19.09-0.31c-0.17-0.17-0.34-0.36-0.5-0.54
		c7.9-4.91,15.77-9.82,23.68-14.7c12.63-7.79,26.28-13.06,40.39-17.61c14.17-4.58,28.52-7.26,43.26-6.66
		c6.73,0.28,13.66,2.1,19.49,6.03c5.67,3.83,11.39,7.69,16.44,12.26c3.54,3.2,9.59,11.11,9.63,11.1
		c-1.48-8.36-2.23-16.96-4.81-24.97c-1.27-3.94-5.6-7.19-9.12-10.04c-4.18-3.39-8.74-6.52-13.57-8.84
		c-4.75-2.29-10.04-3.47-15.12-5.03c-13.53-4.15-27.09-2.06-40.64-0.13c-0.64,0.09-1.28,0.15-2.62-0.44
		c1.43-1.81,2.81-3.66,4.3-5.43c6.22-7.35,14.81-11.56,22.6-16.82c1.01-0.68,2.22-1.05,3.32-1.61c10.3-5.21,21.06-9.12,32.02-12.81
		c15.69-5.27,31.62-7.28,47.99-6.76c2.07,0.06,4.14,0.59,6.22,0.9c4.49,0.7,7.98-1.12,10.14-4.86c0.75-1.28,0.73-4.25-0.17-5
		c-2.9-2.44-6.34-4.27-9.65-6.2c-1.4-0.82-2.96-1.36-5.3-2.4c3.33-1.24,5.82-2.14,8.31-3.06c13.4-4.96,27.32-7.92,41.36-10.21
		c11.72-1.91,23.45-3.86,35.21-5.46c3.37-0.46,6.74-0.89,10.12-1.28c1.67-0.2,3.32-0.38,4.99-0.55c3.02-0.31,6.08-0.54,9.14-0.66
		c0.02,0,0.03,0,0.05,0C1567.58-830.91,1627.43-779.59,1635.65-709.63z"/>
	<path class="st15" d="M1607.41-738.05c-20.37-46.26-62.5-73.56-109.11-74.36c-20.43-0.36-40.17,4.4-57.74,13.68
		c-0.1,0.04-0.18,0.09-0.27,0.16c-8.88,4.7-17.2,10.57-24.78,17.53c-0.01,0-0.01,0.01-0.02,0.02l18.69,20.3l0.02-0.02l62.5,67.89
		l-66.75,61.46l-1.04,0.95c-0.07-0.06-0.14-0.14-0.21-0.22c-16.13-17.45-24.76-40.06-24.35-63.9c0.27-15.14,4.17-29.65,11.27-42.56
		l-19.49-21.16c-12.22,18.65-18.97,40.41-19.37,63.25c-0.55,31.09,10.75,60.57,31.84,83.3c0.55,0.6,1.12,1.19,1.68,1.77
		c6.48,6.71,13.61,12.56,21.26,17.5l43.5-40.05l0,0l63.94-58.87l-79.16-85.98c0.1-0.04,0.2-0.09,0.29-0.12
		c11.75-5.03,24.53-7.56,37.69-7.33c0.76,0.01,1.5,0.04,2.26,0.07c23.68,0.98,45.71,10.85,62.23,27.96
		c8.52,8.82,15.08,19.05,19.44,30.13c4.37,11.07,6.56,23.02,6.34,35.29c-0.42,24.53-10.38,47.44-28.03,64.49
		c-17.65,17.05-40.89,26.2-65.42,25.77c-3.12-0.05-6.2-0.26-9.26-0.62l-24.81,22.85c9.83,3.06,20.12,4.86,30.67,5.29
		c0.97,0.04,1.94,0.07,2.93,0.08c31.9,0.55,62.11-11.36,85.07-33.52c22.24-21.5,35.1-50.13,36.37-80.91
		C1616.26-704.49,1613.54-721.2,1607.41-738.05z"/>
</g>
<g>
	<path class="st15" d="M248.7-457.88l-3,14.97h38.69l3.11-14.97H248.7z M248.7-457.88l-3,14.97h1.45l2.97-14.97H248.7z"/>
	<path class="st15" d="M350.31-464.62c-0.41-0.91-0.86-1.76-1.37-2.56l-0.88,4.46l-2.42,18.42l-4.03,18.42l-1.22,6.2
		c2.94-2.7,5.39-6.1,7.32-10.18c2.61-5.49,4.1-11.88,4.49-19.18C352.75-455.38,352.11-460.59,350.31-464.62z M350.31-464.62
		c-0.41-0.91-0.86-1.76-1.37-2.56l-0.88,4.46l-2.42,18.42l-4.03,18.42l-1.22,6.2c2.94-2.7,5.39-6.1,7.32-10.18
		c2.61-5.49,4.1-11.88,4.49-19.18C352.75-455.38,352.11-460.59,350.31-464.62z"/>
	<path class="st15" d="M578.59-462.95l1.61,5.07l2.09-10.31C580.92-466.68,579.69-464.94,578.59-462.95z"/>
	<path class="st15" d="M393.89-456.73c0,1.46,0.78,2.59,2.36,3.4c1.57,0.8,3.59,1.45,6.04,1.95c2.46,0.5,5.11,1.04,7.94,1.61
		c2.84,0.58,5.49,1.42,7.94,2.53c2.46,1.12,4.47,2.69,6.05,4.72c1.57,2.04,2.36,4.78,2.36,8.23c0,4.68-1.36,8.66-4.09,11.92
		c-2.73,3.27-6.43,5.71-11.12,7.32c-4.68,1.61-10.01,2.42-16,2.42c-5.45,0-10.58-0.62-15.37-1.85c-4.8-1.23-8.5-2.76-11.11-4.6
		l6.91-13.01c2.69,1.77,5.97,3.19,9.85,4.26c3.87,1.08,7.77,1.61,11.68,1.61c4.23,0,7.3-0.53,9.21-1.61
		c1.92-1.07,2.89-2.53,2.89-4.37c0-1.45-0.81-2.55-2.42-3.29c-1.61-0.73-3.65-1.32-6.11-1.78c-2.45-0.46-5.08-1-7.89-1.61
		c-2.8-0.61-5.45-1.48-7.94-2.59c-2.49-1.11-4.53-2.72-6.11-4.84c-1.57-2.11-2.35-4.9-2.35-8.35c0-4.68,1.32-8.64,3.97-11.86
		c2.65-3.23,6.33-5.68,11.05-7.37c4.72-1.68,10.08-2.53,16.06-2.53c4.3,0,8.48,0.47,12.55,1.38c4.07,0.92,7.52,2.19,10.36,3.8
		l-6.45,13.13c-2.92-1.84-5.97-3.09-9.15-3.74c-3.19-0.65-6.24-0.97-9.15-0.97c-4.23,0-7.27,0.59-9.15,1.78
		C394.83-459.85,393.89-458.41,393.89-456.73z"/>
	<path class="st15" d="M466.08-474.11h15.43l-2.76,13.81h-15.42l-4.95,24.87c-0.47,2.62-0.2,4.68,0.8,6.22c1,1.54,2.84,2.3,5.53,2.3
		c1.23,0,2.47-0.19,3.74-0.58c1.27-0.38,2.44-0.92,3.51-1.61l2.65,12.78c-2.22,1.38-4.68,2.34-7.36,2.88
		c-2.69,0.54-5.38,0.81-8.07,0.81c-4.45,0-8.25-0.91-11.39-2.71c-3.15-1.81-5.39-4.41-6.74-7.83c-1.35-3.42-1.56-7.47-0.64-12.15
		l4.97-24.99h-9.57l2.76-13.81h9.55l3-15.08h17.97L466.08-474.11z"/>
	<path class="st15" d="M345.64-444.29l2.42-18.42l0.88-4.46c-1.72-2.75-4.01-4.88-6.87-6.37c-3.69-1.91-8.1-2.88-13.24-2.88
		c-4.77,0-9.21,0.91-13.36,2.71c-4.14,1.81-7.79,4.32-10.94,7.54c-3.15,3.22-5.58,7.02-7.31,11.4c-1.73,4.37-2.59,9.17-2.59,14.39
		c0,5.83,1.23,10.82,3.68,14.97c2.46,4.14,5.72,7.32,9.79,9.5c4.07,2.19,8.48,3.29,13.24,3.29c6.14,0,11.42-1.5,15.83-4.5
		c1.13-0.77,2.2-1.61,3.21-2.54l1.22-6.2L345.64-444.29z M336.26-430.07c-2.72,1.73-5.85,2.59-9.38,2.59
		c-4.45,0-7.93-1.23-10.42-3.68c-2.49-2.46-3.74-5.8-3.74-10.02c0-4.07,0.79-7.62,2.36-10.65c1.58-3.03,3.74-5.41,6.51-7.14
		c2.76-1.73,5.88-2.59,9.33-2.59c4.45,0,7.93,1.23,10.42,3.68c2.49,2.46,3.74,5.8,3.74,10.02c0,4.07-0.78,7.62-2.36,10.65
		C341.14-434.18,338.99-431.8,336.26-430.07z"/>
	<polygon class="st15" points="296.48,-479.18 254.34,-479.18 250.11,-457.88 248.7,-457.88 245.7,-442.91 247.14,-442.91 
		241.32,-413.55 222.56,-413.55 238.67,-494.15 299.59,-494.15 	"/>
	<path class="st15" d="M350.6-475.5h17.97l-12.33,61.95H339.2l1.19-6.11c2.94-2.7,5.39-6.1,7.32-10.18
		c2.61-5.49,4.1-11.88,4.49-19.18c0.54-6.37-0.1-11.57-1.9-15.6c-0.41-0.91-0.86-1.76-1.37-2.56L350.6-475.5z"/>
	<polygon class="st15" points="633.74,-475.5 621.42,-413.55 603.57,-413.55 615.89,-475.5 	"/>
	<path class="st15" d="M620.26-486.84c-1.91-1.8-2.88-4.01-2.88-6.62c0-3.07,1.1-5.62,3.29-7.65c2.18-2.04,5.04-3.06,8.57-3.06
		c3.15,0,5.71,0.87,7.66,2.59c1.96,1.72,2.93,3.86,2.93,6.39c0,3.3-1.1,5.97-3.28,8c-2.19,2.04-5.08,3.05-8.7,3.05
		C624.72-484.14,622.18-485.03,620.26-486.84z"/>
	<path class="st15" d="M711.92-475.5L670.7-409.4c-3.07,4.84-6.01,8.66-8.81,11.46c-2.8,2.8-5.75,4.77-8.87,5.93
		c-3.11,1.15-6.66,1.73-10.65,1.73c-3.15,0-6.28-0.51-9.38-1.5c-3.11-1.01-5.58-2.3-7.43-3.92l8.3-12.9
		c1.3,1.15,2.78,2.07,4.43,2.76c1.65,0.69,3.47,1.04,5.47,1.04c2.3,0,4.32-0.58,6.05-1.73c1.72-1.15,3.43-3.11,5.12-5.87l0.63-1
		l-14.34-62.1h17.97l9.19,42.19l25.82-42.19H711.92z"/>
	<path class="st15" d="M535.52-473.02c-4.37-2.26-9.6-3.4-15.66-3.4c-7.14,0-13.45,1.58-18.94,4.72c-5.49,3.15-9.78,7.42-12.9,12.84
		c-3.11,5.41-4.66,11.57-4.66,18.48c0,5.6,1.3,10.48,3.92,14.62c2.61,4.14,6.27,7.36,10.99,9.67c4.72,2.31,10.31,3.46,16.76,3.46
		c4.68,0,9.27-0.68,13.76-2.02c4.5-1.34,8.54-3.43,12.15-6.28l-7.48-11.86c-2.08,1.85-4.57,3.27-7.49,4.27c-2.92,1-5.95,1.5-9.1,1.5
		c-5.37,0-9.38-1.17-12.03-3.51c-2.36-2.08-3.67-5.14-3.92-9.15h47.39c0.3-1.45,0.56-2.99,0.75-4.6c0.19-1.62,0.29-3.23,0.29-4.84
		c0-5.6-1.21-10.42-3.63-14.45C543.29-467.61,539.9-470.75,535.52-473.02z M532.53-446.94c0.2-1.14,0.32-2.22,0.34-3.23h-30.72
		c0.23-0.74,0.49-1.47,0.79-2.18c1.38-3.3,3.43-5.89,6.15-7.77c2.72-1.88,6.05-2.83,9.96-2.83c3.15,0,5.83,0.64,8.06,1.9
		c2.22,1.27,3.83,3.07,4.84,5.41c0.66,1.58,0.97,3.4,0.91,5.47h7.04L532.53-446.94z"/>
	<path class="st15" d="M605.41-476.42l-3.22,16.58c-0.77-0.07-1.48-0.13-2.13-0.17c-0.65-0.04-1.32-0.06-2.01-0.06
		c-5.3,0-9.62,1.3-12.96,3.92c-3.34,2.61-5.58,6.83-6.74,12.66l-5.99,29.94h-17.96l12.32-61.95h17.04l-1.48,7.31
		c-1.37,1.51-2.6,3.25-3.7,5.24l1.61,5.07l2.09-10.31c2.06-2.29,4.44-4.03,7.12-5.23C593.86-475.42,599.19-476.42,605.41-476.42z"/>
</g>
<g>
	<path class="st15" d="M457.69,230.55c6.41,54.58-20.36,105.41-64.37,132.31c-0.01,0.01-0.01,0.01-0.01,0.01
		c-2.23,1.06-4.41,2.07-6.3,3c-2.7,1.31-5.61,3.11-9.15,5.12c-5.19,2.97-11.69,6.41-20.75,9.44c-3.83,1.28-21.08,6.92-44.75,9.09
		c-3.56,0.33-19.81,0.76-41.1-0.21c-7.99-0.36-16-1.78-23.85-3.39c-9.58-1.97-19.09-4.38-28.47-7.14
		c-7.55-2.22-14.9-5.16-22.27-7.97c-3.3-1.26-6.42-2.99-9.55-4.95c5.4,1.09,10.76,2.32,16.19,3.24c4.65,0.79,9.39,1.01,14.02,1.86
		c11.32,2.08,22.67,2.85,34.08,1.09c2.89-0.45,5.65-1.68,8.85-2.67c-3.75-3.85-7.93-3.79-12-3.97c-13.99-0.64-27.65-3.3-40.58-8.42
		c-8.84-3.49-17.5-7.95-25.34-13.3c-8.38-5.71-15.7-12.83-21.97-21.13c-6.17-8.17-10.45-17.19-15.14-26.15
		c-6.2-11.86-14.82-21.74-26.59-28.98c-6.93-4.26-14.43-6.75-21.66-10.07c-1.09-0.49-2.42-0.43-3.61-0.75
		c-13.43-3.67-27.16-4.4-41-4.26c-6.36,0.06-12.74-0.2-19.1-0.31c-0.17-0.17-0.34-0.36-0.5-0.54c7.9-4.91,15.78-9.82,23.69-14.71
		c12.64-7.8,26.3-13.07,40.42-17.62c14.18-4.58,28.54-7.26,43.29-6.67c6.73,0.28,13.67,2.1,19.5,6.04
		c5.67,3.83,11.4,7.7,16.45,12.26c3.54,3.2,9.6,11.11,9.64,11.11c-1.48-8.37-2.24-16.98-4.81-24.99c-1.27-3.95-5.61-7.19-9.13-10.05
		c-4.18-3.39-8.74-6.52-13.58-8.84c-4.75-2.29-10.04-3.47-15.13-5.03c-13.54-4.15-27.1-2.06-40.66-0.13
		c-0.64,0.09-1.29,0.15-2.62-0.44c1.43-1.81,2.82-3.67,4.3-5.43c6.23-7.36,14.82-11.57,22.62-16.83c1.01-0.68,2.22-1.05,3.32-1.61
		c10.31-5.22,21.08-9.12,32.04-12.81c15.7-5.27,31.64-7.28,48.02-6.77c2.08,0.06,4.15,0.59,6.22,0.9c4.49,0.7,7.98-1.12,10.14-4.87
		c0.75-1.28,0.73-4.26-0.17-5c-2.91-2.44-6.35-4.27-9.65-6.21c-1.4-0.83-2.97-1.37-5.3-2.41c3.34-1.24,5.82-2.14,8.31-3.06
		c13.41-4.96,27.34-7.93,41.39-10.22c11.73-1.91,23.46-3.86,35.23-5.46c3.37-0.46,6.74-0.89,10.12-1.29
		c1.67-0.2,3.32-0.38,4.99-0.55c3.02-0.31,6.08-0.54,9.15-0.66c0.02,0,0.03,0,0.05,0C389.57,109.19,449.47,160.55,457.69,230.55z"/>
	<linearGradient id="SVGID_15_" gradientUnits="userSpaceOnUse" x1="198.6139" y1="247.2373" x2="437.707" y2="247.2373">
		<stop  offset="0" style="stop-color:#7F1710"/>
		<stop  offset="1" style="stop-color:#BE1818"/>
	</linearGradient>
	<path class="st16" d="M429.43,202.11c-20.39-46.29-62.54-73.6-109.18-74.4c-20.44-0.36-40.19,4.4-57.78,13.69
		c-0.1,0.04-0.18,0.09-0.27,0.16c-8.88,4.71-17.22,10.58-24.8,17.55c-0.01,0-0.01,0.01-0.02,0.02l18.7,20.32l0.02-0.02l62.54,67.93
		l-66.79,61.5l-1.04,0.95c-0.07-0.06-0.14-0.14-0.21-0.22c-16.14-17.46-24.78-40.08-24.37-63.94c0.27-15.15,4.18-29.67,11.27-42.59
		l-19.5-21.18c-12.23,18.66-18.99,40.43-19.39,63.29c-0.55,31.11,10.76,60.61,31.86,83.36c0.55,0.6,1.12,1.19,1.68,1.78
		c6.49,6.71,13.62,12.57,21.27,17.51l43.53-40.07l0,0l63.98-58.91l-79.21-86.03c0.1-0.04,0.2-0.09,0.29-0.12
		c11.76-5.03,24.54-7.57,37.72-7.34c0.76,0.01,1.5,0.04,2.26,0.07c23.7,0.98,45.74,10.85,62.27,27.98
		c8.53,8.83,15.09,19.06,19.45,30.15c4.37,11.08,6.56,23.03,6.34,35.31c-0.42,24.55-10.38,47.47-28.05,64.53
		c-17.66,17.06-40.91,26.22-65.46,25.78c-3.12-0.05-6.21-0.26-9.26-0.62l-24.83,22.86c9.84,3.06,20.13,4.86,30.69,5.3
		c0.97,0.04,1.94,0.07,2.93,0.08c31.92,0.55,62.15-11.37,85.12-33.54c22.26-21.51,35.12-50.16,36.39-80.96
		C438.29,235.69,435.56,218.97,429.43,202.11z"/>
</g>
</svg>
