<?xml version="1.0" encoding="utf-8"?>
<!-- Generator: Adobe Illustrator 24.1.1, SVG Export Plug-In . SVG Version: 6.00 Build 0)  -->
<svg version="1.1" id="Layer_1" xmlns="http://www.w3.org/2000/svg" xmlns:xlink="http://www.w3.org/1999/xlink" x="0px" y="0px"
	 viewBox="0 0 500 500" style="enable-background:new 0 0 500 500;" xml:space="preserve">
<style type="text/css">
	.st0{fill:#FFFFFF;}
	.st1{fill:url(#SVGID_1_);}
	.st2{fill:url(#SVGID_2_);}
	.st3{fill:url(#SVGID_3_);}
	.st4{fill:url(#SVGID_4_);}
	.st5{fill:url(#SVGID_5_);}
	.st6{fill:url(#SVGID_6_);}
	.st7{fill:url(#SVGID_7_);}
	.st8{fill:url(#SVGID_8_);}
	.st9{fill:url(#SVGID_9_);}
</style>
<g>
	<path class="st0" d="M442.73,500H57.27C25.64,500,0,474.36,0,442.73L0,57.27C0,25.64,25.64,0,57.27,0l385.47,0
		C474.36,0,500,25.64,500,57.27v385.47C500,474.36,474.36,500,442.73,500z"/>
</g>
<g>
	<g>
		<linearGradient id="SVGID_1_" gradientUnits="userSpaceOnUse" x1="-135.9138" y1="208.8592" x2="393.8372" y2="728.4507">
			<stop  offset="0" style="stop-color:#7F1710"/>
			<stop  offset="1" style="stop-color:#BE1818"/>
		</linearGradient>
		<path class="st1" d="M92.98,428.18c-0.61,3.17-3.28,5.41-6.37,5.41c-3.01,0-4.9-2.24-4.29-5.41c0.61-3.17,3.37-5.48,6.38-5.48
			C91.8,422.7,93.59,425.01,92.98,428.18z"/>
		<linearGradient id="SVGID_2_" gradientUnits="userSpaceOnUse" x1="-108.2346" y1="180.6388" x2="421.5165" y2="700.2302">
			<stop  offset="0" style="stop-color:#7F1710"/>
			<stop  offset="1" style="stop-color:#BE1818"/>
		</linearGradient>
		<path class="st2" d="M132.21,399.29c-2.33,12.13-13.21,18.54-37.01,18.54c-20.55,0-32.49-5.8-29.4-21.86
			c0.58-3.01,2.05-8.27,3.98-12.67l11.1,2.55c-1.31,2.78-2.6,7.1-3.18,10.12c-1.46,7.57,2.03,11.13,19.34,11.13
			c16.61,0,22.02-2.86,22.87-7.26c1.84-9.58-28.74-4.4-25.12-23.25c1.94-10.12,11.49-16.37,23.92-16.37
			c7.72,0,14.83,2.39,19.56,5.95l-6.63,9.96c-5.03-3.56-11.43-5.64-15.83-5.64c-4.1,0-7.93,1.47-8.62,5.02
			C105.34,385.15,135.88,380.21,132.21,399.29z"/>
		<linearGradient id="SVGID_3_" gradientUnits="userSpaceOnUse" x1="-129.5883" y1="202.4101" x2="400.1628" y2="722.0015">
			<stop  offset="0" style="stop-color:#7F1710"/>
			<stop  offset="1" style="stop-color:#BE1818"/>
		</linearGradient>
		<path class="st3" d="M105.88,428.18c-0.61,3.17-3.28,5.41-6.37,5.41c-3.01,0-4.9-2.24-4.29-5.41c0.61-3.17,3.37-5.48,6.38-5.48
			C104.7,422.7,106.49,425.01,105.88,428.18z"/>
		<linearGradient id="SVGID_4_" gradientUnits="userSpaceOnUse" x1="-52.0376" y1="123.343" x2="477.7134" y2="642.9345">
			<stop  offset="0" style="stop-color:#7F1710"/>
			<stop  offset="1" style="stop-color:#BE1818"/>
		</linearGradient>
		<path class="st4" d="M173.6,349.93c0.61-3.17,3.37-5.48,6.38-5.48c3.1,0,4.89,2.32,4.28,5.48c-0.61,3.17-3.27,5.41-6.36,5.41
			C174.88,355.33,172.99,353.09,173.6,349.93z"/>
		<linearGradient id="SVGID_5_" gradientUnits="userSpaceOnUse" x1="-45.7121" y1="116.8939" x2="484.0389" y2="636.4853">
			<stop  offset="0" style="stop-color:#7F1710"/>
			<stop  offset="1" style="stop-color:#BE1818"/>
		</linearGradient>
		<path class="st5" d="M186.5,349.93c0.61-3.17,3.37-5.48,6.38-5.48c3.1,0,4.89,2.32,4.28,5.48c-0.61,3.17-3.27,5.41-6.36,5.41
			C187.78,355.33,185.89,353.09,186.5,349.93z"/>
		<linearGradient id="SVGID_6_" gradientUnits="userSpaceOnUse" x1="-45.0861" y1="116.2556" x2="484.6649" y2="635.847">
			<stop  offset="0" style="stop-color:#7F1710"/>
			<stop  offset="1" style="stop-color:#BE1818"/>
		</linearGradient>
		<path class="st6" d="M320.85,360.74h11.89l-4.15,21.63c-2.23,11.59-8.75,17.38-20.8,17.38c-5.56,0-9.34-1.24-11.66-3.63
			c-3.31,2.39-7.65,3.63-13.21,3.63c-5.57,0-9.35-1.24-11.73-3.71c-3.33,2.47-7.74,3.71-13.38,3.71h-71.38
			c-10.74,0-15.09-5.48-13.6-15.68c-2.28,0.62-4.65,0.93-7.21,0.93c-2.62,0-4.95-0.38-7.07-1l-2.73,14.22
			c-2.25,11.74-10.82,18.93-22.32,19.31l0.42-10.66c5.92,0.15,8.76-2.16,10-8.65l7.2-37.47h11.9l-2.41,12.52
			c2.12,0.62,4.44,1,7.07,1c2.55,0,4.93-0.31,7.13-0.93l2.42-12.59h11.9l-4.14,21.56c-0.9,4.71,0.18,6.72,4.97,6.72h68.68
			c5.48,0,7.3-1.78,8.25-6.72l2.66-13.83h11.89l-2.67,13.9c-0.37,1.93-0.88,3.79-1.5,5.41c1.15,0.85,3.08,1.24,5.86,1.24
			c5.95,0,7.72-1.54,8.71-6.72l3.4-17.69h11.9l-3.42,17.76c-0.39,2.01-0.88,3.79-1.51,5.41c1.14,0.93,3.01,1.24,5.79,1.24
			c5.95,0,7.71-1.54,8.71-6.72L320.85,360.74z"/>
		<linearGradient id="SVGID_7_" gradientUnits="userSpaceOnUse" x1="70.8804" y1="-1.9784" x2="600.6314" y2="517.613">
			<stop  offset="0" style="stop-color:#7F1710"/>
			<stop  offset="1" style="stop-color:#BE1818"/>
		</linearGradient>
		<path class="st7" d="M419.86,346.38c0.71-3.71,3.84-6.34,7.4-6.34c3.56,0,5.67,2.63,4.97,6.34c-0.71,3.7-3.85,6.33-7.4,6.33
			C421.27,352.71,419.15,350.08,419.86,346.38z"/>
		<linearGradient id="SVGID_8_" gradientUnits="userSpaceOnUse" x1="34.4527" y1="35.1616" x2="564.2037" y2="554.7531">
			<stop  offset="0" style="stop-color:#7F1710"/>
			<stop  offset="1" style="stop-color:#BE1818"/>
		</linearGradient>
		<path class="st8" d="M423.54,358.96c-12.28,0-23.89,8.96-26.17,20.86c-0.66,3.4-0.48,6.49,0.47,9.19h-48.21l9.05-47.12H346.8
			l-11.11,57.86h97.64l6.87-35.77C435.19,361.05,429.49,358.96,423.54,358.96z M423.49,389.02h-8.58c-4.38-0.93-6.54-4.56-5.63-9.28
			c1.11-5.79,6.25-10.04,12.35-10.04c1.78,0,3.29,0.15,5.39,0.93L423.49,389.02z"/>
	</g>
	<linearGradient id="SVGID_9_" gradientUnits="userSpaceOnUse" x1="-660.9785" y1="-729.3929" x2="718.0212" y2="649.6068">
		<stop  offset="0" style="stop-color:#7F1710"/>
		<stop  offset="1" style="stop-color:#BE1818"/>
	</linearGradient>
	<path class="st9" d="M398.64,169c5.11,43.52-16.24,84.06-51.33,105.5c0,0.01,0,0.01-0.01,0.01c-1.78,0.85-3.52,1.65-5.03,2.39
		c-2.15,1.04-4.48,2.48-7.3,4.09c-4.14,2.37-9.33,5.11-16.55,7.52c-3.05,1.02-16.81,5.52-35.69,7.25
		c-2.84,0.26-15.8,0.61-32.77-0.17c-6.37-0.29-12.76-1.42-19.02-2.71c-7.64-1.57-15.22-3.49-22.7-5.69
		c-6.02-1.77-11.88-4.11-17.75-6.36c-2.63-1-5.12-2.39-7.61-3.95c4.3,0.87,8.58,1.85,12.91,2.58c3.71,0.63,7.49,0.8,11.18,1.48
		c9.03,1.66,18.08,2.27,27.17,0.87c2.31-0.36,4.51-1.34,7.06-2.13c-2.99-3.07-6.33-3.02-9.57-3.16
		c-11.15-0.51-22.05-2.63-32.36-6.71c-7.05-2.79-13.95-6.34-20.21-10.6c-6.68-4.56-12.52-10.23-17.52-16.85
		c-4.92-6.52-8.33-13.71-12.07-20.85c-4.95-9.46-11.82-17.34-21.2-23.1c-5.53-3.4-11.51-5.38-17.27-8.03
		c-0.87-0.39-1.93-0.34-2.88-0.6c-10.71-2.92-21.66-3.51-32.7-3.4c-5.08,0.05-10.16-0.16-15.23-0.25c-0.13-0.14-0.27-0.29-0.4-0.43
		c6.3-3.92,12.58-7.83,18.89-11.73c10.08-6.22,20.97-10.42,32.23-14.05c11.31-3.65,22.76-5.79,34.52-5.32
		c5.37,0.22,10.9,1.67,15.55,4.81c4.53,3.05,9.09,6.14,13.12,9.78c2.83,2.55,7.65,8.86,7.68,8.86c-1.18-6.67-1.78-13.54-3.84-19.92
		c-1.01-3.15-4.47-5.73-7.28-8.01c-3.33-2.7-6.97-5.2-10.83-7.05c-3.79-1.83-8.01-2.77-12.07-4.01c-10.8-3.31-21.61-1.64-32.43-0.11
		c-0.51,0.07-1.03,0.12-2.09-0.35c1.14-1.44,2.24-2.92,3.43-4.33c4.96-5.87,11.82-9.23,18.03-13.42c0.81-0.54,1.77-0.84,2.65-1.28
		c8.22-4.16,16.81-7.28,25.55-10.22c12.52-4.2,25.23-5.81,38.29-5.4c1.66,0.05,3.31,0.47,4.96,0.72c3.58,0.56,6.37-0.9,8.09-3.88
		c0.6-1.02,0.58-3.39-0.13-3.99c-2.32-1.95-5.06-3.4-7.7-4.95c-1.12-0.66-2.37-1.09-4.23-1.92c2.66-0.99,4.64-1.71,6.63-2.44
		c10.69-3.96,21.8-6.32,33.01-8.15c9.35-1.52,18.71-3.08,28.1-4.35c2.69-0.37,5.38-0.71,8.07-1.03c1.33-0.16,2.65-0.3,3.98-0.44
		c2.41-0.25,4.85-0.43,7.29-0.53c0.01,0,0.02,0,0.04,0C344.33,72.22,392.09,113.18,398.64,169z"/>
	<path class="st0" d="M376.11,146.32c-16.26-36.91-49.87-58.69-87.06-59.33c-16.3-0.29-32.05,3.51-46.07,10.91
		c-0.08,0.04-0.15,0.07-0.22,0.13c-7.08,3.75-13.73,8.43-19.77,13.99c0,0-0.01,0.01-0.01,0.01l14.92,16.2l0.01-0.01l49.87,54.17
		l-53.26,49.04l-0.83,0.76c-0.06-0.05-0.11-0.11-0.17-0.18c-12.87-13.92-19.76-31.96-19.43-50.98c0.21-12.08,3.33-23.66,8.99-33.96
		l-15.55-16.89c-9.75,14.88-15.14,32.24-15.46,50.46c-0.44,24.8,8.58,48.33,25.41,66.47c0.44,0.48,0.89,0.95,1.34,1.42
		c5.17,5.35,10.86,10.03,16.96,13.96l34.71-31.96l0,0l51.02-46.98l-63.16-68.6c0.08-0.04,0.16-0.07,0.23-0.1
		c9.38-4.01,19.57-6.04,30.08-5.85c0.6,0.01,1.2,0.03,1.8,0.06c18.9,0.78,36.47,8.66,49.65,22.31c6.8,7.04,12.03,15.2,15.51,24.04
		c3.49,8.84,5.23,18.37,5.06,28.16c-0.34,19.58-8.28,37.85-22.37,51.45s-32.62,20.91-52.2,20.56c-2.49-0.04-4.95-0.21-7.39-0.49
		l-19.8,18.23c7.85,2.44,16.05,3.88,24.47,4.22c0.77,0.03,1.55,0.05,2.34,0.07c25.46,0.44,49.56-9.06,67.88-26.75
		c17.75-17.15,28.01-40,29.02-64.56C383.17,173.1,381,159.77,376.11,146.32z"/>
</g>
</svg>
