<?xml version="1.0" encoding="utf-8"?>
<!-- Generator: Adobe Illustrator 24.1.1, SVG Export Plug-In . SVG Version: 6.00 Build 0)  -->
<svg version="1.1" id="Layer_1" xmlns="http://www.w3.org/2000/svg" xmlns:xlink="http://www.w3.org/1999/xlink" x="0px" y="0px"
	 viewBox="0 0 500 500" style="enable-background:new 0 0 500 500;" xml:space="preserve">
<style type="text/css">
	.st0{fill:#9D1915;}
</style>
<g>
	<path class="st0" d="M52.47-100.5c0.62-3.25,2.21-8.91,4.29-13.65l11.96,2.75c-1.41,3-2.8,7.66-3.43,10.9
		c-1.57,8.16,2.19,11.99,20.84,11.99c17.9,0,23.73-3.08,24.64-7.83c1.98-10.32-30.97-4.75-27.07-25.06
		c2.09-10.9,12.38-17.65,25.78-17.65c8.32,0,15.98,2.58,21.08,6.41l-7.14,10.74c-5.42-3.83-12.32-6.08-17.06-6.08
		c-4.41,0-8.54,1.58-9.28,5.41c-2,10.4,30.9,5.08,26.95,25.64c-2.51,13.07-14.24,19.98-39.88,19.98
		C62.01-76.95,49.14-83.19,52.47-100.5z M70.27-65.79c0.66-3.41,3.63-5.91,6.88-5.91c3.33,0,5.26,2.5,4.61,5.91
		c-0.66,3.41-3.53,5.83-6.86,5.83C71.65-59.97,69.62-62.38,70.27-65.79z M84.17-65.79c0.66-3.41,3.63-5.91,6.88-5.91
		c3.33,0,5.26,2.5,4.61,5.91c-0.66,3.41-3.53,5.83-6.86,5.83C85.55-59.97,83.52-62.38,84.17-65.79z"/>
	<path class="st0" d="M190.89-102.25c-0.69,3.58-1.62,5.83-2.78,5.83h-5.66c-11.57,0-16.26-5.91-14.65-16.9
		c-2.46,0.67-5.02,1-7.77,1c-2.83,0-5.33-0.42-7.62-1.08l-2.94,15.32c-2.43,12.65-11.66,20.39-24.06,20.81l0.46-11.49
		c6.38,0.17,9.44-2.33,10.78-9.32l7.75-40.37h12.82l-2.59,13.48c2.29,0.67,4.79,1.08,7.62,1.08c2.75,0,5.31-0.33,7.68-1l2.61-13.57
		h12.82l-4.46,23.22c-0.98,5.08,0.19,7.24,5.35,7.24h4.08C191.5-108,191.57-105.75,190.89-102.25z M168.63-150.12
		c0.66-3.41,3.63-5.91,6.88-5.91c3.33,0,5.26,2.5,4.61,5.91c-0.66,3.41-3.53,5.83-6.86,5.83C170-144.29,167.97-146.7,168.63-150.12z
		 M182.53-150.12c0.66-3.41,3.63-5.91,6.88-5.91c3.33,0,5.26,2.5,4.61,5.91c-0.66,3.41-3.53,5.83-6.86,5.83
		C183.9-144.29,181.87-146.7,182.53-150.12z"/>
	<path class="st0" d="M207.62-102.25c-0.69,3.58-1.62,5.83-2.78,5.83h-16.73c-1.17,0-1.23-2.25-0.55-5.83
		c0.67-3.5,1.6-5.74,2.77-5.74h16.73C208.23-108,208.3-105.75,207.62-102.25z"/>
	<path class="st0" d="M224.35-102.25c-0.69,3.58-1.62,5.83-2.78,5.83h-16.73c-1.17,0-1.23-2.25-0.55-5.83
		c0.67-3.5,1.6-5.74,2.77-5.74h16.73C224.96-108,225.03-105.75,224.35-102.25z"/>
	<path class="st0" d="M241.08-102.25c-0.69,3.58-1.62,5.83-2.78,5.83h-16.73c-1.17,0-1.23-2.25-0.55-5.83
		c0.67-3.5,1.6-5.74,2.77-5.74h16.73C241.69-108,241.76-105.75,241.08-102.25z"/>
	<path class="st0" d="M257.81-102.25c-0.69,3.58-1.62,5.83-2.78,5.83H238.3c-1.17,0-1.23-2.25-0.55-5.83
		c0.67-3.5,1.6-5.74,2.77-5.74h16.73C258.42-108,258.49-105.75,257.81-102.25z"/>
	<path class="st0" d="M340.1-138.46l-4.48,23.31c-2.4,12.49-9.42,18.73-22.41,18.73c-5.99,0-10.07-1.33-12.57-3.91
		c-3.57,2.58-8.24,3.91-14.24,3.91s-10.07-1.33-12.63-4c-3.59,2.66-8.34,4-14.42,4h-4.33c-1.17,0-1.23-2.25-0.55-5.83
		c0.67-3.5,1.6-5.74,2.77-5.74h3c5.91,0,7.86-1.91,8.88-7.24l2.86-14.9h12.82l-2.88,14.98c-0.4,2.08-0.95,4.08-1.62,5.83
		c1.24,0.92,3.32,1.33,6.32,1.33c6.41,0,8.31-1.67,9.38-7.24l3.66-19.06h12.82l-3.68,19.15c-0.42,2.16-0.95,4.08-1.62,5.83
		c1.22,1,3.24,1.33,6.24,1.33c6.41,0,8.31-1.67,9.38-7.24l4.46-23.22H340.1z"/>
	<path class="st0" d="M368.35-102.25c-0.69,3.58-1.62,5.83-2.78,5.83h-22.31l11.98-62.35h12.82L358.3-108h9.49
		C368.96-108,369.02-105.75,368.35-102.25z"/>
	<path class="st0" d="M385.08-102.25c-0.69,3.58-1.62,5.83-2.78,5.83h-16.73c-1.17,0-1.23-2.25-0.55-5.83
		c0.67-3.5,1.6-5.74,2.77-5.74h16.73C385.69-108,385.75-105.75,385.08-102.25z"/>
	<path class="st0" d="M401.81-102.25c-0.69,3.58-1.62,5.83-2.78,5.83H382.3c-1.17,0-1.23-2.25-0.55-5.83
		c0.67-3.5,1.6-5.74,2.77-5.74h16.73C402.42-108,402.48-105.75,401.81-102.25z"/>
	<path class="st0" d="M455.87-134.97l-7.4,38.54h-49.44c-1.17,0-1.23-2.25-0.55-5.83c0.67-3.5,1.6-5.74,2.77-5.74h8.99
		c-1.02-2.91-1.21-6.24-0.51-9.91c2.46-12.82,14.97-22.47,28.21-22.47C444.34-140.38,450.49-138.13,455.87-134.97z M428.63-108h9.24
		l3.81-19.81c-2.25-0.83-3.89-1-5.8-1c-6.58,0-12.12,4.58-13.32,10.82C421.59-112.91,423.91-108.99,428.63-108z M433.96-153.94
		c0.77-4,4.14-6.83,7.97-6.83s6.12,2.83,5.35,6.83c-0.77,4-4.14,6.83-7.97,6.83S433.2-149.95,433.96-153.94z"/>
</g>
<g>
	<path class="st0" d="M55.34,284.04h-16.4l14.09-70.43h53.23l-2.72,13.08H66.71L55.34,284.04z M61.78,245.31h33.91l-2.72,13.08
		H59.16L61.78,245.31z"/>
	<path class="st0" d="M126.67,284.85c-4.16,0-8.02-0.96-11.57-2.87c-3.56-1.91-6.41-4.68-8.55-8.3c-2.15-3.62-3.22-7.98-3.22-13.08
		c0-4.56,0.75-8.75,2.26-12.58c1.51-3.82,3.64-7.14,6.39-9.96c2.75-2.82,5.94-5.01,9.56-6.59c3.62-1.58,7.51-2.36,11.67-2.36
		c4.49,0,8.35,0.84,11.57,2.52c3.22,1.68,5.62,4.28,7.19,7.8c1.58,3.52,2.13,8.07,1.66,13.63c-0.34,6.37-1.64,11.96-3.92,16.75
		c-2.28,4.8-5.35,8.5-9.21,11.12C136.65,283.54,132.04,284.85,126.67,284.85z M131.5,271.87c3.08,0,5.82-0.75,8.2-2.26
		c2.38-1.51,4.26-3.59,5.63-6.24c1.37-2.65,2.06-5.75,2.06-9.31c0-3.69-1.09-6.6-3.27-8.75c-2.18-2.15-5.22-3.22-9.11-3.22
		c-3.02,0-5.73,0.75-8.15,2.26c-2.42,1.51-4.31,3.59-5.69,6.24c-1.38,2.65-2.06,5.75-2.06,9.31c0,3.69,1.09,6.61,3.27,8.75
		C124.58,270.8,127.61,271.87,131.5,271.87z M142.27,284.04l2.11-10.77l3.52-16.1l2.11-16.1l2.21-11.17h15.7l-10.77,54.13H142.27z"
		/>
	<path class="st0" d="M191.37,284.85c-4.76,0-9.24-0.54-13.43-1.61c-4.19-1.07-7.43-2.42-9.71-4.02l6.04-11.37
		c2.35,1.54,5.21,2.78,8.6,3.72c3.39,0.94,6.79,1.41,10.21,1.41c3.69,0,6.37-0.47,8.05-1.41c1.68-0.94,2.52-2.21,2.52-3.82
		c0-1.27-0.7-2.23-2.11-2.87c-1.41-0.64-3.19-1.16-5.33-1.56c-2.15-0.4-4.44-0.87-6.89-1.41c-2.45-0.54-4.76-1.29-6.94-2.26
		c-2.18-0.97-3.96-2.38-5.33-4.23c-1.38-1.84-2.06-4.28-2.06-7.29c0-4.09,1.16-7.55,3.47-10.36c2.31-2.82,5.53-4.96,9.66-6.44
		c4.13-1.47,8.8-2.21,14.04-2.21c3.76,0,7.41,0.4,10.97,1.21c3.55,0.81,6.57,1.91,9.06,3.32l-5.63,11.47c-2.55-1.61-5.22-2.7-8-3.27
		c-2.78-0.57-5.45-0.86-8-0.86c-3.69,0-6.36,0.52-8,1.56c-1.64,1.04-2.46,2.3-2.46,3.77c0,1.28,0.69,2.26,2.06,2.97
		c1.37,0.71,3.13,1.28,5.28,1.71c2.15,0.44,4.46,0.9,6.94,1.41c2.48,0.5,4.79,1.24,6.94,2.21c2.15,0.97,3.91,2.35,5.28,4.13
		c1.37,1.78,2.06,4.18,2.06,7.19c0,4.09-1.19,7.56-3.57,10.41c-2.38,2.85-5.62,4.98-9.71,6.39
		C201.26,284.14,196.6,284.85,191.37,284.85z"/>
	<path class="st0" d="M226.68,243.19l2.41-12.07h37.53l-2.42,12.07H226.68z M247.11,284.85c-3.89,0-7.21-0.79-9.96-2.36
		c-2.75-1.58-4.71-3.86-5.89-6.84c-1.17-2.98-1.36-6.52-0.55-10.62l9.36-47.09h15.7l-9.36,46.99c-0.4,2.28-0.17,4.09,0.7,5.43
		c0.87,1.34,2.48,2.01,4.83,2.01c1.07,0,2.16-0.17,3.27-0.5c1.11-0.33,2.13-0.8,3.07-1.41l2.31,11.17
		c-1.95,1.21-4.09,2.05-6.44,2.52C251.8,284.61,249.45,284.85,247.11,284.85z"/>
	<path class="st0" d="M297.62,284.85c-5.63,0-10.51-1.01-14.64-3.02c-4.13-2.01-7.33-4.83-9.61-8.45
		c-2.28-3.62-3.42-7.88-3.42-12.78c0-6.04,1.36-11.42,4.08-16.15c2.72-4.73,6.47-8.47,11.27-11.22c4.79-2.75,10.31-4.13,16.55-4.13
		c5.3,0,9.86,0.99,13.68,2.97c3.82,1.98,6.79,4.73,8.9,8.25c2.11,3.52,3.17,7.73,3.17,12.63c0,1.41-0.08,2.82-0.25,4.23
		c-0.17,1.41-0.39,2.75-0.65,4.02h-44.77l1.61-9.16h35.82l-6.44,2.82c0.54-3.02,0.37-5.55-0.5-7.6c-0.87-2.05-2.28-3.62-4.23-4.73
		c-1.95-1.11-4.29-1.66-7.04-1.66c-3.42,0-6.32,0.82-8.7,2.47c-2.38,1.64-4.18,3.91-5.38,6.79c-1.21,2.88-1.81,6.14-1.81,9.76
		c0,4.16,1.16,7.26,3.47,9.31c2.31,2.05,5.82,3.07,10.51,3.07c2.75,0,5.4-0.44,7.95-1.31c2.55-0.87,4.73-2.11,6.54-3.72l6.54,10.36
		c-3.15,2.48-6.69,4.31-10.62,5.48S301.71,284.85,297.62,284.85z"/>
	<path class="st0" d="M332.03,284.04l10.77-54.13h14.89l-3.12,15.39l-1.41-4.43c2.41-4.36,5.57-7.41,9.46-9.16
		c3.89-1.74,8.55-2.62,13.99-2.62l-2.82,14.49c-0.67-0.07-1.29-0.12-1.86-0.15c-0.57-0.03-1.16-0.05-1.76-0.05
		c-4.63,0-8.4,1.14-11.32,3.42c-2.92,2.28-4.88,5.97-5.89,11.07l-5.23,26.16H332.03z"/>
	<path class="st0" d="M375.39,284.04l10.77-54.13h15.59l-10.77,54.13H375.39z M396.62,222.37c-2.75,0-4.96-0.79-6.64-2.36
		c-1.68-1.58-2.52-3.5-2.52-5.79c0-2.68,0.96-4.91,2.87-6.69c1.91-1.78,4.41-2.67,7.5-2.67c2.75,0,4.98,0.75,6.69,2.26
		c1.71,1.51,2.57,3.37,2.57,5.58c0,2.88-0.96,5.22-2.87,6.99C402.3,221.48,399.77,222.37,396.62,222.37z"/>
	<path class="st0" d="M409.3,304.37c-2.75,0-5.48-0.44-8.2-1.31c-2.72-0.87-4.88-2.01-6.49-3.42l7.24-11.27
		c1.14,1.01,2.43,1.81,3.87,2.42c1.44,0.6,3.03,0.91,4.78,0.91c2.01,0,3.77-0.5,5.28-1.51c1.51-1.01,3-2.72,4.48-5.13l4.33-6.84
		l1.41-1.61l28.57-46.69h15.49l-36.02,57.75c-2.68,4.23-5.25,7.56-7.7,10.01c-2.45,2.45-5.03,4.18-7.75,5.18
		C415.89,303.86,412.78,304.37,409.3,304.37z M421.27,286.16l-12.98-56.24h15.7l9.86,45.28L421.27,286.16z"/>
</g>
</svg>
