<?xml version="1.0" encoding="utf-8"?>
<!-- Generator: Adobe Illustrator 24.1.1, SVG Export Plug-In . SVG Version: 6.00 Build 0)  -->
<svg version="1.1" id="Layer_1" xmlns="http://www.w3.org/2000/svg" xmlns:xlink="http://www.w3.org/1999/xlink" x="0px" y="0px"
	 viewBox="0 0 500 500" style="enable-background:new 0 0 500 500;" xml:space="preserve">
<style type="text/css">
	.st0{fill:#FFFFFF;}
	.st1{fill:url(#SVGID_1_);}
</style>
<g>
	<g>
		<path class="st0" d="M66.86,406.94l-2.76,13.78h35.62l2.86-13.78H66.86z M66.86,406.94l-2.76,13.78h1.33l2.73-13.78H66.86z"/>
		<path class="st0" d="M160.39,400.74c-0.38-0.84-0.79-1.62-1.26-2.35l-0.81,4.11l-2.23,16.96l-3.71,16.96l-1.12,5.71
			c2.71-2.48,4.96-5.61,6.74-9.37c2.4-5.06,3.78-10.94,4.13-17.65C162.64,409.24,162.05,404.45,160.39,400.74z M160.39,400.74
			c-0.38-0.84-0.79-1.62-1.26-2.35l-0.81,4.11l-2.23,16.96l-3.71,16.96l-1.12,5.71c2.71-2.48,4.96-5.61,6.74-9.37
			c2.4-5.06,3.78-10.94,4.13-17.65C162.64,409.24,162.05,404.45,160.39,400.74z"/>
		<path class="st0" d="M370.5,402.27l1.48,4.66l1.93-9.49C372.66,398.84,371.52,400.45,370.5,402.27z"/>
		<path class="st0" d="M200.51,408c0,1.35,0.72,2.38,2.17,3.13c1.44,0.74,3.3,1.34,5.56,1.8c2.26,0.46,4.7,0.96,7.31,1.48
			c2.62,0.53,5.06,1.31,7.31,2.33c2.26,1.03,4.12,2.48,5.57,4.35c1.44,1.87,2.17,4.4,2.17,7.58c0,4.31-1.26,7.97-3.76,10.97
			c-2.51,3.01-5.92,5.25-10.23,6.73c-4.31,1.48-9.22,2.23-14.73,2.23c-5.02,0-9.74-0.57-14.15-1.7c-4.42-1.13-7.82-2.54-10.22-4.24
			l6.36-11.98c2.48,1.63,5.49,2.93,9.07,3.92c3.57,0.99,7.15,1.48,10.75,1.48c3.89,0,6.72-0.49,8.48-1.48
			c1.77-0.99,2.66-2.33,2.66-4.03c0-1.34-0.74-2.35-2.23-3.02c-1.48-0.67-3.36-1.22-5.62-1.64c-2.26-0.42-4.68-0.92-7.26-1.48
			c-2.58-0.56-5.02-1.36-7.31-2.38c-2.29-1.02-4.17-2.51-5.62-4.45c-1.44-1.94-2.17-4.51-2.17-7.68c0-4.31,1.22-7.95,3.66-10.92
			c2.44-2.97,5.83-5.23,10.17-6.79c4.35-1.55,9.28-2.33,14.78-2.33c3.96,0,7.81,0.43,11.56,1.27c3.75,0.85,6.92,2.02,9.54,3.5
			l-5.94,12.08c-2.69-1.69-5.5-2.84-8.43-3.45c-2.93-0.59-5.74-0.9-8.43-0.9c-3.89,0-6.7,0.54-8.43,1.64
			C201.37,405.13,200.51,406.45,200.51,408z"/>
		<path class="st0" d="M266.95,392h14.2l-2.54,12.71h-14.2l-4.56,22.89c-0.43,2.41-0.18,4.31,0.74,5.73
			c0.92,1.41,2.62,2.12,5.09,2.12c1.13,0,2.27-0.17,3.44-0.53c1.17-0.35,2.24-0.84,3.23-1.48l2.44,11.77
			c-2.05,1.27-4.31,2.15-6.78,2.65c-2.48,0.5-4.95,0.74-7.43,0.74c-4.09,0-7.59-0.83-10.49-2.49c-2.9-1.66-4.97-4.06-6.2-7.21
			c-1.24-3.14-1.44-6.88-0.59-11.19l4.57-23h-8.81l2.54-12.71h8.79l2.76-13.88h16.54L266.95,392z"/>
		<path class="st0" d="M156.1,419.45l2.23-16.96l0.81-4.11c-1.59-2.54-3.69-4.49-6.32-5.86c-3.39-1.76-7.46-2.65-12.19-2.65
			c-4.39,0-8.48,0.84-12.3,2.49c-3.81,1.66-7.17,3.98-10.07,6.94c-2.9,2.96-5.14,6.46-6.73,10.49c-1.59,4.02-2.38,8.44-2.38,13.25
			c0,5.36,1.13,9.96,3.39,13.78c2.26,3.81,5.27,6.73,9.01,8.74c3.75,2.02,7.81,3.02,12.19,3.02c5.65,0,10.51-1.38,14.57-4.14
			c1.04-0.71,2.02-1.48,2.96-2.34l1.12-5.71L156.1,419.45z M147.46,432.53c-2.51,1.59-5.39,2.38-8.64,2.38
			c-4.1,0-7.3-1.13-9.59-3.39c-2.29-2.26-3.45-5.33-3.45-9.22c0-3.75,0.73-7.01,2.17-9.8c1.45-2.79,3.45-4.98,5.99-6.57
			c2.54-1.59,5.41-2.38,8.58-2.38c4.1,0,7.3,1.13,9.59,3.39c2.29,2.26,3.45,5.34,3.45,9.22c0,3.75-0.72,7.01-2.17,9.8
			C151.95,428.76,149.97,430.94,147.46,432.53z"/>
		<polygon class="st0" points="110.84,387.33 72.05,387.33 68.16,406.94 66.86,406.94 64.1,420.72 65.43,420.72 60.08,447.74 
			42.8,447.74 57.64,373.56 113.7,373.56 		"/>
		<path class="st0" d="M160.66,390.73h16.54l-11.35,57.02h-15.68l1.1-5.63c2.71-2.48,4.96-5.61,6.74-9.37
			c2.4-5.06,3.78-10.94,4.13-17.65c0.5-5.86-0.09-10.65-1.75-14.36c-0.38-0.84-0.79-1.62-1.26-2.35L160.66,390.73z"/>
		<polygon class="st0" points="421.27,390.73 409.93,447.74 393.5,447.74 404.84,390.73 		"/>
		<path class="st0" d="M408.87,380.28c-1.76-1.66-2.65-3.69-2.65-6.09c0-2.82,1.01-5.18,3.02-7.04c2.01-1.87,4.64-2.81,7.89-2.81
			c2.9,0,5.25,0.8,7.05,2.39c1.81,1.59,2.7,3.55,2.7,5.88c0,3.04-1.01,5.49-3.02,7.37c-2.02,1.87-4.68,2.81-8,2.81
			C412.97,382.77,410.63,381.95,408.87,380.28z"/>
		<path class="st0" d="M493.23,390.73l-37.94,60.83c-2.83,4.45-5.53,7.97-8.11,10.55c-2.58,2.58-5.3,4.39-8.16,5.45
			c-2.86,1.06-6.13,1.59-9.8,1.59c-2.9,0-5.78-0.47-8.64-1.38c-2.86-0.93-5.14-2.12-6.84-3.6l7.64-11.87
			c1.2,1.06,2.56,1.9,4.08,2.54c1.52,0.63,3.2,0.96,5.03,0.96c2.12,0,3.98-0.53,5.57-1.59c1.59-1.06,3.16-2.86,4.72-5.4l0.58-0.92
			l-13.2-57.16h16.54l8.46,38.84l23.77-38.84H493.23z"/>
		<path class="st0" d="M330.86,393c-4.02-2.08-8.83-3.13-14.41-3.13c-6.57,0-12.38,1.45-17.43,4.35c-5.06,2.9-9.01,6.83-11.87,11.82
			c-2.86,4.98-4.29,10.65-4.29,17.01c0,5.15,1.2,9.64,3.6,13.46c2.4,3.81,5.77,6.78,10.12,8.9c4.35,2.12,9.49,3.18,15.42,3.18
			c4.31,0,8.53-0.62,12.66-1.86c4.14-1.23,7.86-3.16,11.18-5.78l-6.88-10.92c-1.91,1.7-4.21,3.01-6.89,3.93s-5.48,1.38-8.37,1.38
			c-4.94,0-8.64-1.08-11.07-3.24c-2.17-1.92-3.38-4.73-3.61-8.43h43.62c0.28-1.34,0.51-2.75,0.69-4.24
			c0.17-1.49,0.26-2.97,0.26-4.45c0-5.15-1.11-9.59-3.34-13.3C338.02,397.99,334.9,395.09,330.86,393z M328.11,417.01
			c0.19-1.05,0.29-2.04,0.31-2.97h-28.27c0.21-0.68,0.45-1.35,0.73-2.01c1.27-3.04,3.16-5.42,5.66-7.15c2.51-1.73,5.57-2.6,9.17-2.6
			c2.9,0,5.36,0.59,7.42,1.75c2.05,1.17,3.53,2.83,4.45,4.98c0.61,1.45,0.9,3.13,0.83,5.03h6.48L328.11,417.01z"/>
		<path class="st0" d="M395.2,389.88l-2.96,15.26c-0.71-0.07-1.36-0.12-1.96-0.16c-0.6-0.04-1.22-0.05-1.85-0.05
			c-4.88,0-8.85,1.2-11.92,3.6c-3.08,2.4-5.14,6.29-6.2,11.65l-5.51,27.56h-16.53l11.34-57.02h15.69l-1.36,6.73
			c-1.26,1.39-2.39,2.99-3.41,4.82l1.48,4.66l1.93-9.49c1.9-2.11,4.09-3.71,6.55-4.81C384.57,390.79,389.47,389.88,395.2,389.88z"/>
	</g>
	<g>
		<path class="st0" d="M405.11,173.96c5.9,50.24-18.74,97.03-59.25,121.78c0,0.01,0,0.01-0.01,0.01c-2.05,0.98-4.06,1.91-5.8,2.76
			c-2.49,1.2-5.17,2.86-8.42,4.72c-4.78,2.73-10.76,5.9-19.1,8.69c-3.52,1.18-19.4,6.37-41.19,8.36c-3.27,0.3-18.24,0.7-37.83-0.19
			c-7.35-0.34-14.73-1.64-21.95-3.12c-8.82-1.81-17.57-4.03-26.21-6.57c-6.95-2.04-13.71-4.75-20.49-7.34
			c-3.04-1.16-5.91-2.75-8.79-4.56c4.97,1,9.91,2.13,14.9,2.98c4.28,0.72,8.64,0.93,12.91,1.71c10.42,1.92,20.87,2.62,31.37,1
			c2.66-0.41,5.2-1.55,8.15-2.46c-3.45-3.54-7.3-3.49-11.04-3.65c-12.88-0.59-25.45-3.04-37.35-7.75
			c-8.14-3.21-16.1-7.32-23.32-12.24c-7.71-5.26-14.45-11.81-20.22-19.45c-5.68-7.52-9.62-15.83-13.93-24.06
			c-5.71-10.92-13.64-20.01-24.47-26.67c-6.38-3.92-13.28-6.21-19.94-9.27c-1-0.45-2.23-0.39-3.32-0.69
			c-12.36-3.37-25-4.05-37.74-3.92c-5.86,0.06-11.72-0.18-17.58-0.29c-0.15-0.16-0.31-0.33-0.46-0.5
			c7.27-4.52,14.53-9.04,21.81-13.54C47.43,172.5,60,167.65,73,163.46c13.06-4.22,26.27-6.68,39.85-6.14
			c6.19,0.26,12.58,1.93,17.95,5.56c5.22,3.52,10.49,7.09,15.14,11.29c3.26,2.95,8.83,10.23,8.87,10.23
			c-1.36-7.7-2.06-15.62-4.43-23c-1.17-3.63-5.16-6.62-8.4-9.25c-3.85-3.12-8.05-6-12.5-8.14c-4.37-2.11-9.24-3.2-13.93-4.63
			c-12.46-3.82-24.95-1.9-37.43-0.12c-0.59,0.08-1.18,0.14-2.41-0.41c1.31-1.66,2.59-3.38,3.96-5c5.73-6.77,13.64-10.65,20.82-15.49
			c0.93-0.63,2.05-0.97,3.06-1.48c9.49-4.8,19.4-8.4,29.49-11.79c14.45-4.85,29.12-6.7,44.2-6.23c1.91,0.05,3.82,0.54,5.73,0.83
			c4.13,0.64,7.35-1.04,9.34-4.48c0.69-1.18,0.67-3.92-0.15-4.6c-2.67-2.25-5.84-3.93-8.88-5.71c-1.29-0.76-2.73-1.26-4.88-2.21
			c3.07-1.14,5.36-1.97,7.65-2.82c12.34-4.57,25.17-7.3,38.1-9.41c10.8-1.76,21.6-3.55,32.43-5.03c3.1-0.43,6.21-0.82,9.32-1.18
			c1.53-0.18,3.06-0.35,4.59-0.51c2.78-0.29,5.6-0.5,8.42-0.61c0.02,0,0.03,0,0.04,0C342.41,62.25,397.54,109.53,405.11,173.96z"/>
		<linearGradient id="SVGID_1_" gradientUnits="userSpaceOnUse" x1="166.6469" y1="189.319" x2="386.7148" y2="189.319">
			<stop  offset="0" style="stop-color:#7F1710"/>
			<stop  offset="1" style="stop-color:#BE1818"/>
		</linearGradient>
		<path class="st1" d="M379.1,147.79c-18.77-42.6-57.57-67.75-100.5-68.48c-18.81-0.33-36.99,4.05-53.18,12.6
			c-0.09,0.04-0.17,0.08-0.25,0.14c-8.18,4.33-15.85,9.73-22.83,16.15c-0.01,0-0.01,0.01-0.02,0.01l17.22,18.7l0.02-0.01
			l57.57,62.52l-61.48,56.6l-0.95,0.88c-0.06-0.06-0.13-0.13-0.19-0.21c-14.86-16.07-22.8-36.89-22.43-58.85
			c0.25-13.94,3.84-27.31,10.38-39.2l-17.95-19.49c-11.26,17.18-17.47,37.21-17.84,58.25c-0.51,28.63,9.9,55.79,29.32,76.72
			c0.51,0.55,1.03,1.09,1.55,1.63c5.97,6.18,12.54,11.57,19.58,16.12l40.06-36.89l0,0l58.89-54.22l-72.91-79.19
			c0.09-0.04,0.18-0.08,0.27-0.11c10.82-4.63,22.59-6.97,34.72-6.75c0.7,0.01,1.38,0.03,2.08,0.06c21.81,0.9,42.1,9.99,57.32,25.75
			c7.85,8.12,13.89,17.54,17.9,27.75c4.03,10.2,6.04,21.2,5.84,32.5c-0.39,22.6-9.56,43.69-25.82,59.39s-37.66,24.13-60.25,23.73
			c-2.87-0.05-5.71-0.24-8.53-0.57l-22.85,21.04c9.06,2.82,18.53,4.47,28.24,4.87c0.89,0.04,1.79,0.06,2.7,0.08
			c29.38,0.5,57.21-10.46,78.35-30.87c20.49-19.8,32.33-46.17,33.5-74.52C387.25,178.69,384.74,163.3,379.1,147.79z"/>
	</g>
</g>
</svg>
