<?xml version="1.0" encoding="utf-8"?>
<!-- Generator: Adobe Illustrator 24.1.1, SVG Export Plug-In . SVG Version: 6.00 Build 0)  -->
<svg version="1.1" id="Layer_1" xmlns="http://www.w3.org/2000/svg" xmlns:xlink="http://www.w3.org/1999/xlink" x="0px" y="0px"
	 viewBox="0 0 393.53 253.6" style="enable-background:new 0 0 393.53 253.6;" xml:space="preserve">
<style type="text/css">
	.st0{fill:none;stroke:url(#SVGID_1_);stroke-width:8;stroke-miterlimit:10;}
	.st1{fill:#FFFFFF;}
</style>
<g>
	<linearGradient id="SVGID_1_" gradientUnits="userSpaceOnUse" x1="113.6164" y1="20.0401" x2="331.0641" y2="237.4879">
		<stop  offset="0" style="stop-color:#7F1710"/>
		<stop  offset="1" style="stop-color:#BE1818"/>
	</linearGradient>
	<path class="st0" d="M388.7,109.93c5.62,47.84-17.85,92.4-56.43,115.97c0,0.01,0,0.01-0.01,0.01c-1.95,0.93-3.86,1.82-5.52,2.63
		c-2.37,1.15-4.92,2.73-8.02,4.49c-4.55,2.6-10.25,5.61-18.19,8.27c-3.35,1.12-18.47,6.07-39.23,7.97
		c-3.12,0.29-17.37,0.67-36.03-0.18c-7-0.32-14.02-1.56-20.91-2.98c-8.4-1.73-16.74-3.84-24.96-6.26
		c-6.62-1.95-13.06-4.52-19.52-6.99c-2.9-1.1-5.63-2.62-8.37-4.34c4.73,0.96,9.44,2.03,14.19,2.84c4.07,0.69,8.23,0.88,12.29,1.63
		c9.92,1.83,19.87,2.5,29.87,0.95c2.53-0.39,4.96-1.48,7.76-2.34c-20.49-1.87-36.06-6.85-46.09-10.85
		c-12.73-5.08-19.63-9.9-22.21-11.65c-8.99-6.13-14.63-12.86-19.26-18.52c-16.73-20.49-21.92-33.92-27.94-41.93
		c-9.44-12.57-30.73-24.83-83.91-20.36c6.93-4.3,13.83-8.61,20.77-12.9c10.54-6.52,21.91-11.97,35.43-15.45
		c5.64-1.45,44.89-11.56,69.46,10.2c4.05,3.59,6.78,7.22,8.45,9.74c-0.14-4.05-1.12-20.65-12.22-30.71
		c-4.67-4.23-11.31-7.46-11.91-7.75c-4.17-2.01-8.8-3.04-13.26-4.41c-11.87-3.64-24.06-2.68-35.95-1c-0.56,0.08,0,0-1.99,0.49
		c1.25-1.59,2.47-3.21,3.77-4.76c5.46-6.45,12.99-10.14,19.82-14.75c0.89-0.6,1.95-0.92,2.91-1.41c9.04-4.57,18.48-8,28.09-11.23
		c13.76-4.62,27.73-6.38,42.09-5.93c3.3,0.1,5.46,0.79,5.46,0.79c12.23,2.1,16.85,5.07,17.88,3.65c1.3-1.79-4.52-8.54-9.13-12.3
		c-1.77-1.44-4.5-3.72-8.46-5.44c-9.5-4.13-18.76-2.02-22.44-0.96c6.09-2.62,12.54-5.11,19.36-7.38
		c35.17-11.73,67.92-13.75,94.15-12.38c0.02,0,0.03,0,0.04,0C329,3.55,381.5,48.57,388.7,109.93z"/>
</g>
<g>
	<path class="st1" d="M325.73,116.09c-19.12-19.1-38.22-38.22-57.33-57.32c-4.6-4.6-8.72-4.58-13.33,0.03
		c-18.88,18.88-37.76,37.75-56.63,56.63c-0.64,0.64-1.31,1.25-1.85,1.96c-3.48,4.49-1.28,10.82,4.2,12.35
		c2.03,0.56,3.86-0.06,5.92-0.66v2.82c0,12.94-0.01,25.88,0,38.82c0.01,11.22,7.03,18.29,18.21,18.29c24.57,0.01,49.14,0.01,73.7,0
		c11.05,0,18.16-7.09,18.17-18.09c0.01-13.02,0-26.04,0-39.06v-2.81c2.01,0.68,3.8,1.33,5.71,0.79c2.9-0.81,4.87-2.58,5.71-5.52
		C329.13,121.04,328.04,118.41,325.73,116.09z M298.04,173.33c-12.11-0.11-24.23-0.05-36.35-0.05c-12.11,0-24.23-0.05-36.35,0.04
		c-2.23,0.02-2.98-0.58-2.97-2.9c0.09-18.25,0.06-36.51,0.02-54.77c0-1.41,0.37-2.42,1.39-3.43c12.13-12.06,24.25-24.15,36.28-36.31
		c1.41-1.43,2.11-1.24,3.41,0.07c11.99,12.09,24.04,24.12,36.11,36.12c1.08,1.07,1.5,2.13,1.5,3.64
		c-0.05,18.17-0.07,36.35,0.02,54.52C301.11,172.64,300.41,173.35,298.04,173.33z"/>
</g>
</svg>
