<svg width="14" height="14" viewBox="0 0 14 14" fill="none" xmlns="http://www.w3.org/2000/svg">
<path d="M9.81166 9.03291C9.59882 8.92595 9.33953 9.00893 9.22832 9.21957C9.12556 9.43417 9.21052 9.69162 9.42082 9.80291C9.93416 10.0654 10.2258 10.3862 10.2258 10.6954C10.2258 11.3546 8.84916 12.0896 7.00582 12.0896C5.16249 12.0896 3.77999 11.3604 3.77999 10.7187C3.77999 10.4154 4.07166 10.0887 4.58499 9.82624C4.73893 9.76451 4.84473 9.62105 4.85822 9.45574C4.87171 9.29043 4.79056 9.13171 4.64865 9.04585C4.50675 8.95999 4.3285 8.96176 4.18832 9.05041C3.4801 9.31734 2.98635 9.9651 2.91666 10.7187C2.91666 12.0137 4.66666 12.9879 6.99999 12.9879C9.33332 12.9879 11.0833 12.0137 11.0833 10.7187C11.0201 9.95856 10.5252 9.30255 9.81166 9.03291Z" fill="#5C5C5F"/>
<path fill-rule="evenodd" clip-rule="evenodd" d="M6.56251 10.9754V8.45543C4.64153 8.22398 3.23315 6.53644 3.34908 4.60504C3.46501 2.67365 5.06513 1.16669 7.00001 1.16669C8.93488 1.16669 10.535 2.67365 10.6509 4.60504C10.7669 6.53644 9.35848 8.22398 7.43751 8.45543V10.9754C7.43751 11.2171 7.24163 11.4129 7.00001 11.4129C6.75838 11.4129 6.56251 11.2171 6.56251 10.9754ZM9.5808 3.75735C9.14772 2.71489 8.12884 2.0364 7.00001 2.03876C5.46461 2.04197 4.22072 3.28586 4.21751 4.82126C4.21515 5.95009 4.89364 6.96898 5.93609 7.40205C6.97855 7.83513 8.17928 7.59694 8.97748 6.79874C9.77569 6.00053 10.0139 4.7998 9.5808 3.75735Z" fill="#5C5C5F"/>
<path d="M5.59415 5.46877C5.83578 5.46877 6.03165 5.27289 6.03165 5.03127C6.03165 4.36116 6.57488 3.81793 7.24499 3.81793C7.48661 3.81793 7.68249 3.62206 7.68249 3.38043C7.68249 3.13881 7.48661 2.94293 7.24499 2.94293C6.68958 2.94448 6.15753 3.16659 5.76589 3.56042C5.37426 3.95425 5.15511 4.48752 5.15665 5.04293C5.15819 5.15742 5.20515 5.26661 5.2872 5.34647C5.36925 5.42633 5.47967 5.47032 5.59415 5.46877Z" fill="#5C5C5F"/>
</svg>
