<svg xmlns="http://www.w3.org/2000/svg" viewBox="0 0 512 512" style="enable-background:new 0 0 512 512" xml:space="preserve"><path d="M452.267 349.867c-11.759 0-22.699 3.464-31.949 9.353l-12.749-14.874c21.461-16.299 48.691-20.864 94.217-11.708a8.521 8.521 0 0 0 7.091-1.766 8.573 8.573 0 0 0 3.123-6.605c0-23.194-26.641-51.2-59.733-51.2-5.965 0-11.631.683-17.135 1.69-.725-58.155-10.965-84.523-45.099-118.656l-2.697-2.697c-10.991-10.948-18.398-18.423-23.748-29.491 11.213 2.603 23.851 4.087 37.478 4.087a8.53 8.53 0 0 0 8.533-8.533V51.2a8.53 8.53 0 0 0-8.533-8.533c-44.553 0-78.976 15.403-84.48 36.676l-55.415 23.748c-4.335 1.852-6.34 6.869-4.48 11.204a8.523 8.523 0 0 0 7.842 5.171c1.126 0 2.27-.222 3.362-.7l31.377-13.448c.06.154.034.316.102.461 37.419 86.383 45.124 142.891 23.578 172.757-17.903 24.806-57.566 34.244-124.484 29.483l14.618-58.487a8.825 8.825 0 0 0 .247-2.065c0-5.939-2.116-11.332-5.513-15.684 3.388-3.78 5.513-8.721 5.513-14.182v-8.533c0-11.759-9.566-21.333-21.333-21.333H55.467c-11.767 0-21.333 9.574-21.333 21.333v8.533c0 3.046.666 5.931 1.818 8.559C14.677 238.532 0 276.599 0 324.267c0 29.611 20.028 41.907 38.784 48.034C30.362 382.822 25.6 395.947 25.6 409.6c0 32.939 26.803 59.733 59.733 59.733 32.93 0 59.733-26.795 59.733-59.733 0-4.941-.811-9.762-1.997-14.507 23.569 3.191 46.473 4.89 68.873 4.89 47.531 0 92.996-7.279 138.752-21.658-.486 4.727-.828 9.472-.828 14.208a8.526 8.526 0 0 0 6.238 8.218 8.534 8.534 0 0 0 9.6-3.806c10.001-16.572 19.209-30.302 29.244-41.105l12.416 14.49c-9.199 10.513-14.831 24.235-14.831 39.27 0 32.939 26.803 59.733 59.733 59.733 32.93 0 59.733-26.795 59.733-59.733.001-32.939-26.802-59.733-59.732-59.733zm-59.734-289.92V76.8h-17.067c-4.719 0-8.533 3.823-8.533 8.533s3.814 8.533 8.533 8.533h17.067v16.853c-36.736-1.886-59.733-15.676-59.733-25.387s22.997-23.5 59.733-25.385zM51.2 209.067c0-2.313 1.954-4.267 4.267-4.267H192c2.313 0 4.267 1.954 4.267 4.267v8.533c0 2.313-1.954 4.267-4.267 4.267H55.467c-2.313 0-4.267-1.954-4.267-4.267v-8.533zm34.133 243.2c-23.526 0-42.667-19.14-42.667-42.667a42.723 42.723 0 0 1 14.225-31.804l.435-.393c11.383 3.081 22.622 5.922 33.63 8.371l-12.723 19.089c-2.62 3.917-1.562 9.225 2.364 11.836a8.496 8.496 0 0 0 4.727 1.434 8.517 8.517 0 0 0 7.108-3.797l16.555-24.832a638.258 638.258 0 0 0 15.479 2.773l1.101 3.089a42.574 42.574 0 0 1 2.432 14.234c.001 23.526-19.139 42.667-42.666 42.667zm268.578-92.86c-94.379 31.479-187.136 31.283-300.715-.768-29.986-7.219-36.13-18.961-36.13-34.372 0-50.287 17.988-85.333 34.133-85.333h136.533c4.412 0 8.047 3.362 8.491 7.654l-16.768 67.072a8.529 8.529 0 0 0 7.527 10.573c79.522 7.014 127.147-4.318 149.794-35.703 25.728-35.652 18.816-95.872-21.743-189.525-.06-.128-.171-.213-.23-.333l3.985-1.707c4.173 7.91 12.553 14.771 24.004 20.019 6.767 22.665 17.656 33.724 32.495 48.512l2.679 2.671c31.505 31.505 39.936 54.707 40.149 111.3-33.134 13.047-55.525 44.595-64.204 79.94zm18.663-3.524c11.358-36.147 39.415-65.749 79.693-65.749 18.406 0 33.365 11.836 39.578 23.415-62.618-9.447-93.995 9.608-119.271 42.334zm79.693 96.384c-23.526 0-42.667-19.14-42.667-42.667 0-9.847 3.49-18.807 9.114-26.035l27.076 31.59a8.52 8.52 0 0 0 6.477 2.978 8.473 8.473 0 0 0 5.547-2.057c3.584-3.063 4.002-8.457.922-12.032l-27.068-31.582c6.144-3.413 13.09-5.53 20.599-5.53 23.526 0 42.667 19.14 42.667 42.667-.001 23.527-19.141 42.668-42.667 42.668z"/></svg>