<svg width="106" height="106" fill="none" xmlns="http://www.w3.org/2000/svg"><path d="M53 71.903a11.778 11.778 0 1 0 0 23.556 11.778 11.778 0 0 0 0-23.556zm0 17.667a5.889 5.889 0 1 1 0-11.777 5.889 5.889 0 0 1 0 11.777zM77.174 64.336a2.944 2.944 0 0 0-.677-4.122 39.927 39.927 0 0 0-14.723-6.566L73.17 65.043a2.944 2.944 0 0 0 4.005-.707zM53.147 31.564a61.477 61.477 0 0 0-12.249 1.267l5.124 5.123a55.94 55.94 0 0 1 7.125-.5A55.238 55.238 0 0 1 84.33 47.11a2.944 2.944 0 0 0 3.298-4.858 61.097 61.097 0 0 0-34.48-10.689zM98.786 24.145a82.768 82.768 0 0 0-74.907-8.363l4.653 4.623a76.556 76.556 0 0 1 67.015 8.657 2.944 2.944 0 0 0 3.239-4.917z" fill="#D5D5D5"/><path d="m5.418 13.986 7.155 7.155a72.52 72.52 0 0 0-5.389 3.239 2.949 2.949 0 0 0 3.298 4.888c2.061-1.384 4.24-2.768 6.42-3.799l11.394 11.395a60.627 60.627 0 0 0-9.952 5.536 2.945 2.945 0 0 0 3.327 4.711 55.417 55.417 0 0 1 11.1-5.889l12.25 12.25a39.78 39.78 0 0 0-15.577 7.036 2.944 2.944 0 0 0 3.475 4.74 33.921 33.921 0 0 1 17.137-6.36l31.8 31.8 4.151-4.15L9.452 9.981l-4.034 4.004z" fill="#D5D5D5"/></svg>