<svg xmlns="http://www.w3.org/2000/svg" viewBox="0 0 512 512" style="enable-background:new 0 0 512 512" xml:space="preserve"><path d="m487.78 299.83 3.731-8.017c3.156-6.778.651-14.721-5.823-18.476-14.16-8.212-30.342-12.552-46.798-12.552-14.517 0-28.496 3.278-41.215 9.561 1.121-15.888-1.617-32.057-8.339-47.148l-28.008-62.885h15.513c6.54 0 11.862-5.321 11.862-11.862V96.556c0-6.54-5.322-11.862-11.862-11.862h-38.256c-20.848 0-37.808 16.961-37.808 37.809 0 2.881.333 5.724.969 8.49h-27.793c-11.772 0-21.35 9.577-21.35 21.349 0 11.771 9.577 21.35 21.35 21.35h44.736l26.942 68c5.4 13.629 3.504 28.863-5.071 40.754-13.611 18.873-35.628 30.14-58.897 30.14h-20.825c-10.727 0-20.993-5.108-27.462-13.664l-44.771-59.213c7.475-2.369 12.911-9.369 12.911-17.619v-7.763c0-10.19-8.29-18.481-18.48-18.481H143.15a59.958 59.958 0 0 1-21.734-4.063 89.453 89.453 0 0 0-32.435-6.063H30.868c-11.523 0-20.898 9.374-20.898 20.897v13.054c0 10.74 8.147 19.606 18.584 20.762l-8.811 52.065A82.612 82.612 0 0 0 .395 332.629a25.059 25.059 0 0 0 5.463 20.542 25.052 25.052 0 0 0 19.26 8.995h1.732c3.985 36.577 35.048 65.14 72.667 65.14s68.682-28.564 72.667-65.14h126.919c16.682 0 32.716-4.153 46.874-11.781a14.322 14.322 0 0 0 3.549 7.162 14.409 14.409 0 0 0 10.555 4.619h6.143c3.985 36.577 35.048 65.14 72.667 65.14 40.313 0 73.11-32.797 73.11-73.11-.001-21.035-8.753-40.51-24.221-54.366zM361.667 100.633h11.097v43.74h-11.097v-43.74zm-23.082 0h7.143v41.304c-3.657-6.521-10.63-10.945-18.624-10.945h-8.66a21.788 21.788 0 0 1-1.728-8.49c0-12.058 9.809-21.869 21.869-21.869zm-11.481 57.119h-53.151a5.417 5.417 0 0 1-5.411-5.411 5.416 5.416 0 0 1 5.411-5.41h53.151a5.416 5.416 0 0 1 5.41 5.41 5.418 5.418 0 0 1-5.41 5.411zm-180.48 54.032h36.412a2.544 2.544 0 0 1 2.541 2.542v7.762a2.544 2.544 0 0 1-2.541 2.542h-48.344l11.932-12.846zm-120.715 7.887v-13.054a4.964 4.964 0 0 1 4.959-4.958H88.98c9.16 0 18.135 1.678 26.678 4.987a76.045 76.045 0 0 0 10.918 3.301l-13.64 14.682H30.868a4.962 4.962 0 0 1-4.959-4.958zm73.607 191.696c-24.089 0-44.73-14.983-53.135-36.113.345.364.698.723 1.07 1.065a22.093 22.093 0 0 0 14.931 5.82c.567 0 1.138-.025 1.708-.07 8.511 10.854 21.414 17.215 35.427 17.215 22.14 0 40.592-16.047 44.368-37.119h12.235c-3.891 27.764-27.785 49.202-56.604 49.202zm5.856-48.704-42.503 3.516a6.008 6.008 0 0 1-4.622-1.588 6.049 6.049 0 0 1-1.607-2.427h50.2c-.435.27-.929.455-1.468.499zm18.797-.498h3.379c-3.477 12.209-14.722 21.18-28.031 21.18a29.117 29.117 0 0 1-13.137-3.117l20.306-1.68c8.968-.741 16.161-7.706 17.483-16.383zm60.745-16.75c-.235.37-.682.811-1.476.811H25.117a9.154 9.154 0 0 1-7.036-3.287 9.152 9.152 0 0 1-1.996-7.505c5.711-31.92 33.391-55.087 65.818-55.087h34.229c23.767 0 45.652 13.902 55.753 35.415l13.134 27.973c.339.719.13 1.311-.105 1.68zm114.188.811h-98.06a17.641 17.641 0 0 0-1.594-9.266l-13.134-27.972c-12.716-27.081-40.264-44.58-70.181-44.58h-34.23a82.597 82.597 0 0 0-43.309 12.221l6.102-36.06h124.578l51.388 67.966c9.465 12.517 24.483 19.991 40.176 19.991h20.825c28.376 0 55.226-13.74 71.824-36.755 11.773-16.324 14.375-37.239 6.961-55.949l-25.252-63.734a21.443 21.443 0 0 0 10.089-8.616l29.489 66.209c11.46 25.73 9.144 55.195-6.195 78.818-15.337 23.624-41.31 37.727-69.477 37.727zm62.721-.001a77.576 77.576 0 0 1 1.143-7.451 99.19 99.19 0 0 0 18.983-21.595 99.162 99.162 0 0 0 11.986-26.067c13.17-9.417 28.654-14.39 44.954-14.39 13.169 0 26.121 3.347 37.553 9.692l-12.816 27.541a7.695 7.695 0 0 1-6.953 4.433h-5.336c-17.573 0-34.09 9.371-43.105 24.458a6.97 6.97 0 0 1-5.955 3.378h-40.454zm106.216 7.971c0 16.072-13.076 29.148-29.149 29.148-13.863 0-25.489-9.731-28.424-22.719 4.714-1.818 8.797-5.161 11.449-9.601 6.154-10.298 17.428-16.694 29.423-16.694h5.336c1.115 0 2.218-.083 3.304-.237a28.997 28.997 0 0 1 8.061 20.103zm-29.149 57.171c-28.819 0-52.712-21.438-56.604-49.201h12.236c3.775 21.071 22.226 37.118 44.368 37.118 24.862 0 45.088-20.227 45.088-45.087 0-10.24-3.427-19.982-9.622-27.846a23.453 23.453 0 0 0 3.722-5.668l2.581-5.547c9.884 10.507 15.402 24.293 15.402 39.06 0 31.524-25.647 57.171-57.171 57.171z"/><path d="M123.055 297.613H75.978a7.97 7.97 0 0 0 0 15.938h47.076a7.97 7.97 0 0 0 .001-15.938zM123.055 318.318H75.978a7.97 7.97 0 0 0 0 15.938h47.076a7.97 7.97 0 0 0 .001-15.938z"/></svg>