<?xml version="1.0" encoding="utf-8"?>
<!-- Generator: Adobe Illustrator 24.1.1, SVG Export Plug-In . SVG Version: 6.00 Build 0)  -->
<svg version="1.1" id="Layer_1" xmlns="http://www.w3.org/2000/svg" xmlns:xlink="http://www.w3.org/1999/xlink" x="0px" y="0px"
	 viewBox="0 0 500 500" style="enable-background:new 0 0 500 500;" xml:space="preserve">
<style type="text/css">
	.st0{fill:url(#SVGID_1_);}
	.st1{fill:#FFFFFF;}
	.st2{fill:url(#SVGID_2_);}
</style>
<g>
	<linearGradient id="SVGID_1_" gradientUnits="userSpaceOnUse" x1="-343.5538" y1="-411.2274" x2="692.6791" y2="743.1508">
		<stop  offset="0" style="stop-color:#7F1710"/>
		<stop  offset="1" style="stop-color:#BE1818"/>
	</linearGradient>
	<path class="st0" d="M442.73,500H57.27C25.64,500,0,474.36,0,442.73L0,57.27C0,25.64,25.64,0,57.27,0l385.47,0
		C474.36,0,500,25.64,500,57.27v385.47C500,474.36,474.36,500,442.73,500z"/>
	<g>
		<g>
			<path class="st1" d="M91.64,374.78l-2.41,12.01h31.04l2.49-12.01H91.64z M91.64,374.78l-2.41,12.01h1.16l2.38-12.01H91.64z"/>
			<path class="st1" d="M173.14,369.38c-0.33-0.73-0.69-1.41-1.09-2.05c-0.64,2.2-2.3,15.79-2.65,18.36
				c-0.78,3.55-3.63,16.4-4.21,19.75C173.9,397.46,177.17,380.29,173.14,369.38z M173.14,369.38c-0.33-0.73-0.69-1.41-1.09-2.05
				c-0.64,2.2-2.3,15.79-2.65,18.36c-0.78,3.55-3.63,16.4-4.21,19.75C173.9,397.46,177.17,380.29,173.14,369.38z"/>
			<path class="st1" d="M356.24,370.72l1.29,4.06l1.68-8.27C358.12,367.73,357.13,369.13,356.24,370.72z"/>
			<path class="st1" d="M208.1,375.71c1.16,4.96,8.8,4.11,13.11,5.59c33.33,9.62-0.52,43.41-33.15,24.62l5.54-10.44
				c19.68,11.33,45.5-0.63,7.43-7.52c-7.96-2.89-8.59-14.3-3.6-20.09c9.21-10.29,28.43-9.72,40.13-3.79l-5.17,10.53
				C226.19,370.9,210.7,367.31,208.1,375.71z"/>
			<path class="st1" d="M266,361.76h12.38l-2.22,11.08h-12.37c-0.61,7.58-11.62,34.45,6.92,25.03l2.12,10.25
				c-8.36,4.73-22.97,4.67-26.92-5.49c-3.01-5.94,2.75-23.37,3.47-29.79h-7.68l2.22-11.08h7.66l2.41-12.1h14.41L266,361.76z"/>
			<path class="st1" d="M169.4,385.69c0.37-2.7,1.99-16.01,2.65-18.36c-10.72-14.75-36.27-6.04-41.48,9.95
				c-10.52,22.63,15.24,44.97,34.62,28.16C165.77,402.12,168.63,389.21,169.4,385.69z M161.87,397.09
				c-17.18,9.9-26.05-14.09-11.77-23.18C167.3,364.04,176.03,387.99,161.87,397.09z"/>
			<polygon class="st1" points="129.96,357.7 96.16,357.7 92.77,374.78 91.64,374.78 89.23,386.79 90.39,386.79 85.72,410.34 
				70.67,410.34 83.6,345.69 132.46,345.69 			"/>
			<path class="st1" d="M173.37,360.66h14.41l-9.89,49.69h-13.66l0.96-4.9c9.02-8.49,12.79-27.09,6.86-38.11L173.37,360.66z"/>
			<polygon class="st1" points="400.48,360.66 390.59,410.34 376.28,410.34 386.16,360.66 			"/>
			<path class="st1" d="M389.67,351.56c-8.07-8.26,5.87-18.63,13.35-11.82C411.26,347.96,397.1,358.63,389.67,351.56z"/>
			<path class="st1" d="M463.19,360.66l-33.06,53.01c-6.95,13.95-23.41,20.44-36.21,10.99l6.65-10.35
				c5.72,5.23,14.11,3.49,17.41-3.85l-11.5-49.81h14.41l7.37,33.84l20.71-33.84H463.19z"/>
			<path class="st1" d="M321.7,362.64c-58.13-18.09-53.92,74.62,4.34,41.79l-6-9.51c-7.42,6.66-25.83,7.39-26.1-5.54h38.01
				C334.45,379.11,331.66,367.4,321.7,362.64z M319.3,383.56c0.16-0.91,0.26-1.78,0.27-2.59h-24.64c2.17-12.6,24.89-14.58,24.64,0
				h5.64L319.3,383.56z"/>
			<path class="st1" d="M377.76,359.91l-2.58,13.3c-21.42-4.41-20.3,23.59-23.92,37.13h-14.4l9.88-49.69h13.67l-1.19,5.86
				c-1.09,1.21-2.08,2.61-2.97,4.2l1.29,4.06l1.68-8.27C364.13,361.26,370.12,360.09,377.76,359.91z"/>
		</g>
		<g>
			<path class="st1" d="M386.39,171.76c11.23,115.47-127.24,156.19-217.03,108.51c19.19,3.15,39.63,9.5,58.67,2.82
				c-3.01-3.09-6.36-3.04-9.62-3.18c-11.22-0.52-22.18-2.65-32.55-6.75c-72.26-30.09-27.82-88.59-139.9-84.17
				c-0.13-0.14-0.27-0.29-0.4-0.43c34.61-23.42,93.19-52.17,122.72-7.69c-2.09-10.19-1.06-22.01-11.18-28.1
				c-16.05-14.27-38.04-13.67-57.75-11.59c21.04-24.5,57-34.86,88.47-34.86c5.4,1.74,15.86,0.53,13-7.19
				c-3.88-2.98-7.24-4.93-12-6.91C269.71,61.1,370.64,69.03,386.39,171.76z"/>
			<linearGradient id="SVGID_2_" gradientUnits="userSpaceOnUse" x1="178.7084" y1="185.4301" x2="370.7875" y2="185.4301">
				<stop  offset="0" style="stop-color:#7F1710"/>
				<stop  offset="1" style="stop-color:#BE1818"/>
			</linearGradient>
			<path class="st2" d="M363.73,148.95c-25.51-62.08-106.88-79.05-154.04-34.49l15,16.29l0.01-0.01l50.17,54.49
				c-1.12,1.03-53.31,49.08-54.41,50.09c-21.5-22.38-25.87-58.73-10.67-85.62l-15.64-16.99c-29.14,42.51-15.61,106.1,28.42,133.09
				l34.91-32.14l0,0l51.32-47.25l-63.54-69.01c46.87-21.92,105.52,17.13,102.93,69.02c0.27,42.44-40.43,77.91-82.43,71.94
				l-19.92,18.34C321.26,301.86,394.09,222.27,363.73,148.95z"/>
		</g>
	</g>
</g>
</svg>
