<?xml version="1.0" encoding="utf-8"?>
<!-- Generator: Adobe Illustrator 24.1.1, SVG Export Plug-In . SVG Version: 6.00 Build 0)  -->
<svg version="1.1" id="Layer_1" xmlns="http://www.w3.org/2000/svg" xmlns:xlink="http://www.w3.org/1999/xlink" x="0px" y="0px"
	 viewBox="0 0 500 500" style="enable-background:new 0 0 500 500;" xml:space="preserve">
<style type="text/css">
	.st0{fill:url(#SVGID_1_);}
	.st1{fill:url(#SVGID_2_);}
	.st2{fill:url(#SVGID_3_);}
	.st3{fill:url(#SVGID_4_);}
	.st4{fill:url(#SVGID_5_);}
	.st5{fill:url(#SVGID_6_);}
	.st6{fill:url(#SVGID_7_);}
	.st7{fill:url(#SVGID_8_);}
	.st8{fill:url(#SVGID_9_);}
	.st9{fill:url(#SVGID_10_);}
	.st10{fill:url(#SVGID_11_);}
	.st11{fill:url(#SVGID_12_);}
	.st12{fill:url(#SVGID_13_);}
	.st13{fill:url(#SVGID_14_);}
	.st14{fill:#FFFFFF;}
</style>
<g>
	<g>
		<linearGradient id="SVGID_1_" gradientUnits="userSpaceOnUse" x1="459.044" y1="408.9772" x2="-34.952" y2="408.9772">
			<stop  offset="0" style="stop-color:#7E1712"/>
			<stop  offset="1" style="stop-color:#BD181A"/>
		</linearGradient>
		<path class="st0" d="M54,402.01l-2.79,13.94h1.35l2.76-13.94H54z M54,402.01l-2.79,13.94h36.03l2.89-13.94H54z"/>
		<linearGradient id="SVGID_2_" gradientUnits="userSpaceOnUse" x1="458.8813" y1="415.4717" x2="-34.8395" y2="415.4717">
			<stop  offset="0" style="stop-color:#7E1712"/>
			<stop  offset="1" style="stop-color:#BD181A"/>
		</linearGradient>
		<path class="st1" d="M148.63,395.73c-0.38-0.85-0.8-1.63-1.27-2.38l-0.82,4.16l-2.26,17.15l-3.75,17.15l-1.13,5.78
			c2.74-2.51,5.01-5.68,6.81-9.47c2.43-5.12,3.82-11.07,4.18-17.86C150.9,404.33,150.3,399.48,148.63,395.73z M148.63,395.73
			c-0.38-0.85-0.8-1.63-1.27-2.38l-0.82,4.16l-2.26,17.15l-3.75,17.15l-1.13,5.78c2.74-2.51,5.01-5.68,6.81-9.47
			c2.43-5.12,3.82-11.07,4.18-17.86C150.9,404.33,150.3,399.48,148.63,395.73z"/>
		<linearGradient id="SVGID_3_" gradientUnits="userSpaceOnUse" x1="459.3427" y1="397.2044" x2="-35.9642" y2="397.2044">
			<stop  offset="0" style="stop-color:#7E1712"/>
			<stop  offset="1" style="stop-color:#BD181A"/>
		</linearGradient>
		<path class="st2" d="M361.19,397.29l1.51,4.72l1.95-9.6C363.38,393.81,362.22,395.44,361.19,397.29z"/>
		<linearGradient id="SVGID_4_" gradientUnits="userSpaceOnUse" x1="459.1017" y1="414.4436" x2="-34.9662" y2="414.4436">
			<stop  offset="0" style="stop-color:#7E1712"/>
			<stop  offset="1" style="stop-color:#BD181A"/>
		</linearGradient>
		<path class="st3" d="M189.21,403.08c0,1.36,0.73,2.41,2.2,3.17c1.46,0.75,3.34,1.35,5.62,1.82c2.29,0.46,4.76,0.97,7.4,1.5
			c2.65,0.54,5.11,1.32,7.4,2.36c2.29,1.04,4.16,2.5,5.63,4.4c1.46,1.9,2.2,4.45,2.2,7.66c0,4.36-1.27,8.06-3.81,11.1
			c-2.54,3.04-5.99,5.31-10.35,6.81c-4.36,1.5-9.32,2.25-14.9,2.25c-5.08,0-9.85-0.58-14.32-1.72c-4.47-1.14-7.92-2.57-10.34-4.29
			l6.43-12.12c2.5,1.64,5.56,2.97,9.17,3.97c3.61,1,7.23,1.5,10.88,1.5c3.93,0,6.8-0.49,8.58-1.5c1.79-1,2.69-2.36,2.69-4.07
			c0-1.35-0.75-2.37-2.25-3.06c-1.5-0.68-3.39-1.23-5.69-1.66c-2.28-0.43-4.73-0.93-7.34-1.5c-2.61-0.57-5.08-1.38-7.4-2.41
			c-2.32-1.04-4.22-2.53-5.69-4.51c-1.46-1.96-2.19-4.56-2.19-7.77c0-4.36,1.23-8.05,3.7-11.04c2.47-3.01,5.9-5.29,10.29-6.87
			c4.4-1.57,9.38-2.36,14.96-2.36c4,0,7.9,0.43,11.69,1.29c3.79,0.86,7,2.04,9.65,3.54l-6.01,12.22c-2.72-1.71-5.56-2.88-8.52-3.49
			c-2.97-0.6-5.81-0.91-8.52-0.91c-3.93,0-6.77,0.55-8.52,1.66C190.09,400.17,189.21,401.51,189.21,403.08z"/>
		<linearGradient id="SVGID_5_" gradientUnits="userSpaceOnUse" x1="459.1017" y1="408.4955" x2="-34.9662" y2="408.4955">
			<stop  offset="0" style="stop-color:#7E1712"/>
			<stop  offset="1" style="stop-color:#BD181A"/>
		</linearGradient>
		<path class="st4" d="M256.44,386.89h14.37l-2.57,12.86h-14.36l-4.61,23.16c-0.43,2.44-0.18,4.36,0.75,5.79s2.65,2.15,5.15,2.15
			c1.14,0,2.3-0.18,3.48-0.54c1.18-0.35,2.27-0.85,3.27-1.5l2.47,11.9c-2.07,1.29-4.36,2.18-6.86,2.68c-2.5,0.5-5.01,0.75-7.51,0.75
			c-4.14,0-7.68-0.84-10.61-2.52c-2.93-1.68-5.02-4.11-6.27-7.29c-1.26-3.18-1.45-6.96-0.59-11.32l4.63-23.27h-8.91l2.57-12.86h8.89
			l2.79-14.04h16.73L256.44,386.89z"/>
		<linearGradient id="SVGID_6_" gradientUnits="userSpaceOnUse" x1="459.0954" y1="414.4427" x2="-34.9628" y2="414.4427">
			<stop  offset="0" style="stop-color:#7E1712"/>
			<stop  offset="1" style="stop-color:#BD181A"/>
		</linearGradient>
		<path class="st5" d="M140.97,387.42c-3.44-1.78-7.54-2.68-12.33-2.68c-4.44,0-8.58,0.85-12.45,2.52
			c-3.86,1.68-7.26,4.03-10.18,7.02c-2.93,3-5.2,6.54-6.8,10.62c-1.61,4.08-2.41,8.54-2.41,13.4c0,5.43,1.14,10.08,3.43,13.94
			c2.28,3.85,5.33,6.8,9.12,8.84c3.79,2.04,7.9,3.05,12.33,3.05c5.71,0,10.63-1.39,14.74-4.19c1.04-0.71,2.05-1.5,2.99-2.36
			l1.13-5.78l3.75-17.15l2.26-17.15l0.82-4.16C145.75,390.79,143.63,388.81,140.97,387.42z M141.55,421.25
			c-1.46,2.83-3.46,5.04-6.01,6.65c-2.53,1.62-5.45,2.41-8.73,2.41c-4.15,0-7.38-1.14-9.7-3.43c-2.32-2.28-3.49-5.4-3.49-9.33
			c0-3.79,0.74-7.1,2.2-9.92c1.47-2.83,3.49-5.04,6.06-6.65c2.58-1.62,5.48-2.41,8.69-2.41c4.15,0,7.39,1.14,9.71,3.43
			c2.31,2.28,3.49,5.41,3.49,9.33C143.76,415.12,143.02,418.43,141.55,421.25z"/>
		<linearGradient id="SVGID_7_" gradientUnits="userSpaceOnUse" x1="459.1017" y1="405.7593" x2="-34.9662" y2="405.7593">
			<stop  offset="0" style="stop-color:#7E1712"/>
			<stop  offset="1" style="stop-color:#BD181A"/>
		</linearGradient>
		<polygon class="st6" points="98.5,382.17 59.26,382.17 55.33,402 54.01,402 51.22,415.95 52.56,415.95 47.14,443.29 29.67,443.29 
			44.68,368.23 101.4,368.23 		"/>
		<linearGradient id="SVGID_8_" gradientUnits="userSpaceOnUse" x1="459.1017" y1="414.4436" x2="-34.9662" y2="414.4436">
			<stop  offset="0" style="stop-color:#7E1712"/>
			<stop  offset="1" style="stop-color:#BD181A"/>
		</linearGradient>
		<path class="st7" d="M148.9,385.6h16.73l-11.48,57.68h-15.86l1.11-5.69c2.74-2.51,5.02-5.68,6.82-9.48
			c2.43-5.11,3.82-11.07,4.18-17.86c0.5-5.93-0.09-10.78-1.77-14.53c-0.38-0.84-0.8-1.64-1.27-2.38L148.9,385.6z"/>
		<linearGradient id="SVGID_9_" gradientUnits="userSpaceOnUse" x1="459.1017" y1="414.4436" x2="-34.9662" y2="414.4436">
			<stop  offset="0" style="stop-color:#7E1712"/>
			<stop  offset="1" style="stop-color:#BD181A"/>
		</linearGradient>
		<polygon class="st8" points="412.56,385.6 401.08,443.29 384.46,443.29 395.93,385.6 		"/>
		<linearGradient id="SVGID_10_" gradientUnits="userSpaceOnUse" x1="459.1017" y1="368.2287" x2="-34.9662" y2="368.2287">
			<stop  offset="0" style="stop-color:#7E1712"/>
			<stop  offset="1" style="stop-color:#BD181A"/>
		</linearGradient>
		<path class="st9" d="M400,375.04c-1.78-1.67-2.68-3.73-2.68-6.17c0-2.85,1.02-5.24,3.06-7.12c2.03-1.9,4.7-2.85,7.98-2.85
			c2.93,0,5.31,0.81,7.13,2.41c1.83,1.61,2.73,3.59,2.73,5.95c0,3.07-1.02,5.56-3.05,7.45c-2.04,1.9-4.73,2.84-8.1,2.84
			C404.15,377.56,401.79,376.72,400,375.04z"/>
		<linearGradient id="SVGID_11_" gradientUnits="userSpaceOnUse" x1="459.1017" y1="425.2743" x2="-34.9662" y2="425.2743">
			<stop  offset="0" style="stop-color:#7E1712"/>
			<stop  offset="1" style="stop-color:#BD181A"/>
		</linearGradient>
		<path class="st10" d="M485.36,385.6l-38.38,61.54c-2.86,4.51-5.59,8.06-8.2,10.67c-2.61,2.61-5.36,4.44-8.26,5.52
			c-2.89,1.07-6.2,1.61-9.92,1.61c-2.93,0-5.85-0.47-8.74-1.39c-2.89-0.94-5.2-2.15-6.92-3.65l7.73-12.01
			c1.21,1.07,2.59,1.93,4.13,2.57c1.54,0.64,3.23,0.97,5.09,0.97c2.15,0,4.03-0.54,5.63-1.61c1.61-1.07,3.2-2.89,4.77-5.46
			l0.59-0.93l-13.35-57.83h16.73l8.55,39.29l24.04-39.29H485.36z"/>
		<linearGradient id="SVGID_12_" gradientUnits="userSpaceOnUse" x1="459.1052" y1="414.4427" x2="-34.9786" y2="414.4427">
			<stop  offset="0" style="stop-color:#7E1712"/>
			<stop  offset="1" style="stop-color:#BD181A"/>
		</linearGradient>
		<path class="st11" d="M330.58,396.7c-2.26-3.75-5.42-6.68-9.49-8.79c-4.07-2.11-8.93-3.16-14.58-3.16
			c-6.65,0-12.53,1.47-17.64,4.4c-5.11,2.92-9.11,6.9-12,11.96c-2.9,5.03-4.34,10.76-4.34,17.2c0,5.22,1.21,9.76,3.64,13.62
			c2.43,3.86,5.84,6.85,10.24,9c4.4,2.15,9.6,3.22,15.6,3.22c4.36,0,8.64-0.63,12.81-1.88c4.19-1.24,7.96-3.19,11.31-5.84
			l-6.96-11.05c-1.94,1.72-4.26,3.05-6.97,3.98c-2.72,0.93-5.54,1.39-8.48,1.39c-4.99,0-8.73-1.08-11.2-3.27
			c-2.21-1.94-3.42-4.79-3.65-8.53H333c0.28-1.35,0.51-2.79,0.7-4.28c0.18-1.51,0.27-3,0.27-4.5
			C333.96,404.94,332.84,400.45,330.58,396.7z M290.01,409.18c0.22-0.69,0.46-1.37,0.74-2.03c1.29-3.07,3.2-5.49,5.73-7.24
			c2.54-1.75,5.63-2.63,9.28-2.63c2.93,0,5.44,0.59,7.51,1.77c2.07,1.17,3.56,2.86,4.5,5.03c0.62,1.48,0.91,3.17,0.85,5.09H290.01z"
			/>
		<linearGradient id="SVGID_13_" gradientUnits="userSpaceOnUse" x1="459.1017" y1="414.0136" x2="-34.9662" y2="414.0136">
			<stop  offset="0" style="stop-color:#7E1712"/>
			<stop  offset="1" style="stop-color:#BD181A"/>
		</linearGradient>
		<path class="st12" d="M386.18,384.74l-3,15.44c-0.72-0.07-1.38-0.12-1.99-0.16c-0.61-0.04-1.23-0.05-1.87-0.05
			c-4.93,0-8.96,1.21-12.06,3.65c-3.11,2.43-5.2,6.36-6.27,11.79l-5.58,27.88h-16.72l11.47-57.68h15.87l-1.38,6.8
			c-1.27,1.41-2.42,3.03-3.45,4.88l1.5,4.72l1.95-9.6c1.92-2.13,4.13-3.75,6.63-4.87C375.42,385.67,380.38,384.74,386.18,384.74z"/>
	</g>
	<g>
		
			<linearGradient id="SVGID_14_" gradientUnits="userSpaceOnUse" x1="-503.2077" y1="97.542" x2="-99.6292" y2="97.542" gradientTransform="matrix(0.9932 -0.1167 0.1167 0.9932 509.2397 43.3964)">
			<stop  offset="0" style="stop-color:#7E1712"/>
			<stop  offset="1" style="stop-color:#BD181A"/>
		</linearGradient>
		<path class="st13" d="M421.4,149.56c6.1,51.89-19.36,100.23-61.2,125.79c-0.01,0.01-0.01,0.01-0.01,0.01
			c-2.12,1.01-4.19,1.97-5.99,2.85c-2.57,1.24-5.34,2.96-8.7,4.87c-4.93,2.82-11.12,6.09-19.73,8.97
			c-3.64,1.22-20.04,6.58-42.55,8.64c-3.38,0.31-18.84,0.73-39.08-0.2c-7.6-0.35-15.21-1.69-22.68-3.23
			c-9.11-1.87-18.15-4.17-27.07-6.79c-7.18-2.11-14.17-4.9-21.17-7.58c-3.14-1.2-6.11-2.85-9.08-4.71
			c5.13,1.04,10.24,2.21,15.39,3.08c4.42,0.75,8.93,0.96,13.33,1.77c10.77,1.98,21.56,2.71,32.4,1.04c2.75-0.43,5.38-1.6,8.42-2.54
			c-3.56-3.66-7.54-3.6-11.41-3.77c-13.3-0.61-26.29-3.14-38.58-8c-8.4-3.32-16.63-7.56-24.09-12.64
			c-7.96-5.43-14.93-12.2-20.89-20.09c-5.87-7.77-9.93-16.35-14.39-24.86c-5.9-11.28-14.09-20.67-25.28-27.55
			c-6.59-4.05-13.72-6.42-20.59-9.58c-1.04-0.47-2.3-0.41-3.43-0.72c-12.77-3.48-25.82-4.18-38.99-4.05
			c-6.05,0.06-12.11-0.19-18.16-0.3c-0.16-0.17-0.32-0.34-0.48-0.51c7.51-4.67,15.01-9.34,22.53-13.99
			c12.01-7.41,25-12.43,38.43-16.76c13.49-4.35,27.13-6.9,41.16-6.34c6.4,0.26,13,2,18.54,5.74c5.4,3.64,10.84,7.32,15.64,11.66
			c3.37,3.05,9.12,10.57,9.16,10.56c-1.41-7.96-2.13-16.14-4.57-23.76c-1.21-3.75-5.33-6.84-8.68-9.55
			c-3.98-3.22-8.31-6.2-12.91-8.41c-4.52-2.18-9.55-3.3-14.39-4.79c-12.87-3.95-25.77-1.96-38.66-0.13
			c-0.61,0.08-1.22,0.14-2.49-0.42c1.36-1.72,2.68-3.49,4.09-5.17c5.92-6.99,14.09-11,21.5-16c0.96-0.65,2.11-1,3.16-1.53
			c9.8-4.96,20.04-8.68,30.46-12.18c14.93-5.01,30.08-6.92,45.65-6.44c1.97,0.05,3.94,0.56,5.92,0.86c4.27,0.66,7.59-1.07,9.64-4.63
			c0.71-1.22,0.7-4.05-0.16-4.75c-2.76-2.32-6.04-4.06-9.18-5.9c-1.33-0.78-2.82-1.3-5.04-2.29c3.17-1.18,5.54-2.04,7.9-2.91
			c12.75-4.72,26-7.54,39.35-9.72c11.15-1.81,22.31-3.67,33.5-5.19c3.21-0.44,6.41-0.85,9.63-1.22c1.58-0.19,3.16-0.36,4.75-0.52
			c2.87-0.3,5.79-0.51,8.7-0.63c0.02,0,0.03,0,0.05,0C356.63,34.18,413.58,83.01,421.4,149.56z"/>
		<path class="st14" d="M394.53,122.53c-19.38-44.01-59.47-69.98-103.81-70.74c-19.44-0.35-38.21,4.18-54.93,13.01
			c-0.09,0.04-0.17,0.08-0.26,0.15c-8.45,4.47-16.37,10.05-23.58,16.68c-0.01,0-0.01,0.01-0.02,0.01l17.78,19.32l0.02-0.01
			l59.47,64.59L225.7,224l-0.99,0.91c-0.07-0.06-0.13-0.13-0.2-0.21c-15.35-16.6-23.56-38.11-23.17-60.79
			c0.26-14.4,3.97-28.21,10.72-40.49l-18.54-20.13c-11.63,17.75-18.05,38.44-18.43,60.17c-0.52,29.58,10.23,57.63,30.29,79.25
			c0.52,0.57,1.06,1.13,1.6,1.69c6.17,6.38,12.95,11.95,20.23,16.65l41.38-38.1l0,0l60.83-56.01l-75.31-81.8
			c0.09-0.04,0.19-0.08,0.28-0.11c11.18-4.78,23.33-7.2,35.86-6.98c0.72,0.01,1.43,0.04,2.15,0.07
			c22.53,0.93,43.49,10.32,59.21,26.6c8.11,8.39,14.35,18.12,18.5,28.67c4.16,10.54,6.24,21.9,6.03,33.57
			c-0.4,23.34-9.87,45.13-26.67,61.35c-16.79,16.22-38.9,24.93-62.24,24.51c-2.96-0.05-5.9-0.25-8.81-0.59l-23.61,21.74
			c9.36,2.91,19.14,4.62,29.18,5.04c0.92,0.04,1.85,0.06,2.79,0.08c30.35,0.52,59.09-10.81,80.93-31.89
			c21.16-20.45,33.39-47.69,34.6-76.98C402.95,154.45,400.36,138.56,394.53,122.53z"/>
	</g>
</g>
</svg>
