<?xml version="1.0" encoding="utf-8"?>
<!-- Generator: Adobe Illustrator 24.1.1, SVG Export Plug-In . SVG Version: 6.00 Build 0)  -->
<svg version="1.1" id="Layer_1" xmlns="http://www.w3.org/2000/svg" xmlns:xlink="http://www.w3.org/1999/xlink" x="0px" y="0px"
	 viewBox="0 0 500 500" style="enable-background:new 0 0 500 500;" xml:space="preserve">
<style type="text/css">
	.st0{fill:#FFFFFF;}
	.st1{fill:url(#SVGID_1_);}
</style>
<g>
	<g>
		<path class="st0" d="M78.27,467.18c-0.71,3.68-3.81,6.28-7.4,6.28c-3.5,0-5.69-2.6-4.98-6.28c0.7-3.68,3.91-6.37,7.41-6.37
			C76.89,460.81,78.98,463.51,78.27,467.18z"/>
		<path class="st0" d="M123.83,433.63c-2.71,14.09-15.35,21.54-42.99,21.54c-23.86,0-37.74-6.73-34.15-25.39
			c0.67-3.5,2.38-9.6,4.62-14.72l12.89,2.97c-1.52,3.23-3.02,8.25-3.69,11.75c-1.69,8.79,2.36,12.92,22.46,12.92
			c19.29,0,25.58-3.32,26.56-8.44c2.14-11.13-33.38-5.12-29.17-27.01c2.25-11.75,13.34-19.02,27.79-19.02
			c8.97,0,17.23,2.78,22.72,6.91l-7.7,11.57c-5.84-4.13-13.28-6.55-18.39-6.55c-4.76,0-9.22,1.71-10.01,5.83
			C92.62,417.21,128.09,411.47,123.83,433.63z"/>
		<path class="st0" d="M93.25,467.18c-0.71,3.68-3.81,6.28-7.4,6.28c-3.5,0-5.69-2.6-4.98-6.28c0.7-3.68,3.91-6.37,7.41-6.37
			C91.88,460.81,93.96,463.51,93.25,467.18z"/>
		<path class="st0" d="M171.9,376.3c0.71-3.68,3.91-6.37,7.41-6.37c3.6,0,5.68,2.69,4.97,6.37c-0.7,3.68-3.8,6.28-7.39,6.28
			C173.39,382.58,171.2,379.97,171.9,376.3z"/>
		<path class="st0" d="M186.88,376.3c0.71-3.68,3.91-6.37,7.41-6.37c3.6,0,5.68,2.69,4.97,6.37c-0.7,3.68-3.8,6.28-7.39,6.28
			C188.37,382.58,186.18,379.97,186.88,376.3z"/>
		<path class="st0" d="M342.92,388.86h13.81l-4.82,25.13c-2.59,13.46-10.16,20.19-24.16,20.19c-6.46,0-10.85-1.44-13.54-4.22
			c-3.85,2.78-8.88,4.22-15.34,4.22c-6.46,0-10.85-1.44-13.62-4.31c-3.87,2.87-8.99,4.31-15.54,4.31H186.8
			c-12.47,0-17.53-6.37-15.79-18.22c-2.65,0.72-5.4,1.08-8.37,1.08c-3.05,0-5.75-0.44-8.21-1.16l-3.17,16.51
			c-2.62,13.63-12.57,21.98-25.93,22.43l0.49-12.38c6.87,0.18,10.17-2.51,11.62-10.05l8.36-43.52h13.82l-2.8,14.54
			c2.46,0.72,5.16,1.16,8.21,1.16c2.97,0,5.72-0.36,8.28-1.08l2.81-14.63h13.82l-4.81,25.04c-1.05,5.47,0.21,7.81,5.77,7.81h79.76
			c6.37,0,8.47-2.07,9.58-7.81l3.08-16.06h13.81l-3.1,16.15c-0.43,2.25-1.02,4.4-1.74,6.28c1.33,0.99,3.58,1.44,6.81,1.44
			c6.91,0,8.96-1.79,10.11-7.81l3.95-20.54h13.82l-3.97,20.63c-0.45,2.34-1.02,4.4-1.75,6.28c1.32,1.07,3.49,1.44,6.72,1.44
			c6.91,0,8.96-1.79,10.11-7.81L342.92,388.86z"/>
		<path class="st0" d="M457.92,372.17c0.83-4.31,4.46-7.36,8.59-7.36s6.59,3.05,5.77,7.36c-0.83,4.3-4.47,7.35-8.59,7.35
			C459.55,379.53,457.09,376.47,457.92,372.17z"/>
		<path class="st0" d="M462.19,386.79c-14.26,0-27.74,10.41-30.4,24.23c-0.76,3.94-0.56,7.53,0.55,10.68h-55.99l10.51-54.73h-13.81
			l-12.91,67.2h113.4l7.98-41.54C475.72,389.22,469.1,386.79,462.19,386.79z M462.13,421.7h-9.96c-5.09-1.08-7.59-5.29-6.54-10.77
			c1.29-6.72,7.26-11.66,14.35-11.66c2.07,0,3.83,0.18,6.26,1.08L462.13,421.7z"/>
	</g>
	<g>
		<path class="st0" d="M409.55,166.15c5.94,50.58-18.87,97.69-59.66,122.61c0,0.01,0,0.01-0.01,0.01c-2.06,0.99-4.09,1.92-5.84,2.78
			c-2.5,1.21-5.2,2.88-8.48,4.75c-4.81,2.75-10.84,5.94-19.23,8.74c-3.55,1.19-19.53,6.42-41.47,8.42
			c-3.3,0.3-18.36,0.71-38.09-0.19c-7.4-0.34-14.83-1.65-22.1-3.15c-8.88-1.83-17.69-4.06-26.39-6.62c-7-2.06-13.81-4.78-20.63-7.39
			c-3.06-1.17-5.95-2.77-8.85-4.59c5,1.01,9.98,2.15,15,3c4.31,0.73,8.7,0.93,13,1.72c10.49,1.93,21.01,2.64,31.58,1.01
			c2.68-0.42,5.24-1.56,8.2-2.48c-3.47-3.57-7.35-3.51-11.12-3.68c-12.96-0.6-25.62-3.06-37.61-7.8
			c-8.19-3.24-16.21-7.37-23.48-12.32c-7.76-5.29-14.55-11.89-20.36-19.58c-5.72-7.58-9.68-15.93-14.03-24.23
			c-5.75-10.99-13.73-20.15-24.64-26.85c-6.42-3.95-13.37-6.26-20.07-9.33c-1.01-0.46-2.24-0.4-3.34-0.7
			c-12.45-3.4-25.17-4.08-38-3.95c-5.9,0.06-11.8-0.18-17.7-0.29c-0.15-0.16-0.31-0.33-0.47-0.5c7.32-4.55,14.63-9.1,21.96-13.63
			c11.71-7.22,24.37-12.11,37.46-16.33c13.14-4.24,26.45-6.73,40.12-6.18c6.24,0.26,12.67,1.94,18.07,5.59
			c5.26,3.55,10.56,7.14,15.25,11.37c3.28,2.97,8.89,10.3,8.93,10.3c-1.37-7.76-2.07-15.73-4.46-23.16
			c-1.18-3.66-5.19-6.66-8.46-9.31c-3.87-3.14-8.1-6.04-12.59-8.19c-4.4-2.12-9.31-3.22-14.02-4.67
			c-12.55-3.85-25.12-1.91-37.68-0.12c-0.59,0.08-1.19,0.14-2.43-0.41c1.32-1.68,2.61-3.4,3.99-5.04
			c5.77-6.82,13.73-10.72,20.96-15.6c0.94-0.63,2.06-0.97,3.08-1.49c9.55-4.83,19.53-8.46,29.69-11.88
			c14.55-4.89,29.32-6.75,44.5-6.27c1.92,0.05,3.84,0.54,5.77,0.84c4.16,0.65,7.4-1.04,9.4-4.51c0.69-1.19,0.68-3.94-0.15-4.63
			c-2.69-2.26-5.88-3.96-8.95-5.75c-1.3-0.76-2.75-1.27-4.91-2.23c3.09-1.15,5.4-1.99,7.7-2.84c12.43-4.6,25.34-7.35,38.36-9.47
			c10.87-1.77,21.74-3.58,32.65-5.06c3.13-0.43,6.25-0.83,9.38-1.19c1.54-0.18,3.08-0.35,4.63-0.51c2.8-0.29,5.64-0.5,8.48-0.62
			c0.02,0,0.03,0,0.04,0C346.42,53.69,401.93,101.28,409.55,166.15z"/>
		<linearGradient id="SVGID_1_" gradientUnits="userSpaceOnUse" x1="169.4587" y1="181.618" x2="391.0313" y2="181.618">
			<stop  offset="0" style="stop-color:#7F1710"/>
			<stop  offset="1" style="stop-color:#BE1818"/>
		</linearGradient>
		<path class="st1" d="M383.36,139.8c-18.89-42.9-57.96-68.21-101.18-68.95c-18.94-0.34-37.25,4.08-53.54,12.68
			c-0.09,0.04-0.17,0.08-0.25,0.15c-8.23,4.36-15.95,9.8-22.98,16.26c-0.01,0-0.01,0.01-0.02,0.01l17.33,18.83l0.02-0.01
			l57.96,62.95l-61.9,56.99l-0.96,0.88c-0.06-0.06-0.13-0.13-0.19-0.21c-14.96-16.18-22.96-37.15-22.58-59.25
			c0.25-14.04,3.87-27.5,10.45-39.47l-18.07-19.62c-11.34,17.3-17.59,37.47-17.97,58.65c-0.51,28.83,9.97,56.17,29.53,77.25
			c0.51,0.56,1.03,1.1,1.56,1.65c6.01,6.22,12.62,11.65,19.71,16.23l40.34-37.14l0,0l59.29-54.59l-73.41-79.73
			c0.09-0.04,0.18-0.08,0.27-0.11c10.9-4.66,22.74-7.01,34.95-6.8c0.7,0.01,1.39,0.04,2.09,0.06c21.96,0.91,42.39,10.06,57.71,25.93
			c7.9,8.18,13.98,17.66,18.03,27.94c4.05,10.27,6.08,21.35,5.88,32.72c-0.39,22.75-9.62,43.99-25.99,59.8s-37.92,24.3-60.67,23.89
			c-2.89-0.05-5.75-0.24-8.58-0.57l-23.01,21.19c9.12,2.84,18.66,4.5,28.44,4.91c0.9,0.04,1.8,0.06,2.71,0.08
			c29.58,0.51,57.6-10.53,78.88-31.08c20.63-19.93,32.55-46.48,33.73-75.03C391.57,170.91,389.04,155.42,383.36,139.8z"/>
	</g>
</g>
</svg>
