<?xml version="1.0" encoding="utf-8"?>
<!-- Generator: Adobe Illustrator 24.1.1, SVG Export Plug-In . SVG Version: 6.00 Build 0)  -->
<svg version="1.1" id="Layer_1" xmlns="http://www.w3.org/2000/svg" xmlns:xlink="http://www.w3.org/1999/xlink" x="0px" y="0px"
	 viewBox="0 0 500 500" style="enable-background:new 0 0 500 500;" xml:space="preserve">
<style type="text/css">
	.st0{fill:url(#SVGID_1_);}
	.st1{fill:url(#SVGID_2_);}
	.st2{fill:url(#SVGID_3_);}
	.st3{fill:url(#SVGID_4_);}
	.st4{fill:url(#SVGID_5_);}
	.st5{fill:url(#SVGID_6_);}
	.st6{fill:url(#SVGID_7_);}
	.st7{fill:url(#SVGID_8_);}
	.st8{fill:url(#SVGID_9_);}
	.st9{fill:#FFFFFF;}
</style>
<g>
	<g>
		<linearGradient id="SVGID_1_" gradientUnits="userSpaceOnUse" x1="-239.1938" y1="205.9409" x2="424.722" y2="857.124">
			<stop  offset="0" style="stop-color:#7F1710"/>
			<stop  offset="1" style="stop-color:#BE1818"/>
		</linearGradient>
		<path class="st0" d="M47.67,480.81c-0.77,3.97-4.11,6.78-7.98,6.78c-3.78,0-6.14-2.81-5.38-6.78c0.76-3.97,4.22-6.87,8-6.87
			C46.18,473.93,48.43,476.84,47.67,480.81z"/>
		<linearGradient id="SVGID_2_" gradientUnits="userSpaceOnUse" x1="-204.5045" y1="170.5733" x2="459.4113" y2="821.7565">
			<stop  offset="0" style="stop-color:#7F1710"/>
			<stop  offset="1" style="stop-color:#BE1818"/>
		</linearGradient>
		<path class="st1" d="M96.83,444.6c-2.92,15.2-16.56,23.24-46.38,23.24c-25.75,0-40.72-7.26-36.85-27.4
			c0.73-3.78,2.57-10.36,4.98-15.88l13.91,3.2c-1.64,3.48-3.26,8.9-3.98,12.68c-1.82,9.49,2.54,13.94,24.23,13.94
			c20.82,0,27.6-3.58,28.66-9.1c2.3-12.01-36.02-5.52-31.48-29.14c2.43-12.68,14.4-20.52,29.98-20.52c9.68,0,18.59,3,24.51,7.46
			l-8.3,12.49c-6.3-4.46-14.33-7.07-19.84-7.07c-5.14,0-9.94,1.84-10.8,6.3C63.16,426.89,101.43,420.69,96.83,444.6z"/>
		<linearGradient id="SVGID_3_" gradientUnits="userSpaceOnUse" x1="-231.2663" y1="197.8584" x2="432.6495" y2="849.0416">
			<stop  offset="0" style="stop-color:#7F1710"/>
			<stop  offset="1" style="stop-color:#BE1818"/>
		</linearGradient>
		<path class="st2" d="M63.84,480.81c-0.77,3.97-4.11,6.78-7.98,6.78c-3.78,0-6.14-2.81-5.38-6.78c0.76-3.97,4.22-6.87,8-6.87
			C62.35,473.93,64.6,476.84,63.84,480.81z"/>
		<linearGradient id="SVGID_4_" gradientUnits="userSpaceOnUse" x1="-134.0751" y1="98.7669" x2="529.8406" y2="749.95">
			<stop  offset="0" style="stop-color:#7F1710"/>
			<stop  offset="1" style="stop-color:#BE1818"/>
		</linearGradient>
		<path class="st3" d="M148.7,382.73c0.77-3.97,4.22-6.87,8-6.87c3.88,0,6.13,2.9,5.36,6.87c-0.76,3.97-4.1,6.78-7.98,6.78
			C150.31,389.51,147.94,386.7,148.7,382.73z"/>
		<linearGradient id="SVGID_5_" gradientUnits="userSpaceOnUse" x1="-126.1476" y1="90.6844" x2="537.7681" y2="741.8676">
			<stop  offset="0" style="stop-color:#7F1710"/>
			<stop  offset="1" style="stop-color:#BE1818"/>
		</linearGradient>
		<path class="st4" d="M164.87,382.73c0.77-3.97,4.22-6.87,8-6.87c3.88,0,6.13,2.9,5.36,6.87c-0.76,3.97-4.1,6.78-7.98,6.78
			C166.48,389.51,164.11,386.7,164.87,382.73z"/>
		<linearGradient id="SVGID_6_" gradientUnits="userSpaceOnUse" x1="-125.363" y1="89.8844" x2="538.5527" y2="741.0676">
			<stop  offset="0" style="stop-color:#7F1710"/>
			<stop  offset="1" style="stop-color:#BE1818"/>
		</linearGradient>
		<path class="st5" d="M333.25,396.29h14.9l-5.2,27.11c-2.79,14.52-10.97,21.78-26.07,21.78c-6.97,0-11.7-1.55-14.62-4.55
			c-4.15,3-9.58,4.55-16.55,4.55c-6.98,0-11.71-1.55-14.7-4.65c-4.18,3.1-9.7,4.65-16.77,4.65h-89.46
			c-13.46,0-18.91-6.87-17.04-19.66c-2.86,0.78-5.83,1.16-9.03,1.16c-3.29,0-6.2-0.48-8.86-1.26l-3.42,17.82
			c-2.82,14.71-13.56,23.72-27.98,24.2l0.53-13.36c7.42,0.19,10.98-2.71,12.54-10.84l9.02-46.96h14.91l-3.02,15.69
			c2.66,0.78,5.57,1.26,8.86,1.26c3.2,0,6.18-0.38,8.94-1.16l3.03-15.78h14.91l-5.19,27.02c-1.13,5.9,0.22,8.42,6.22,8.42h86.07
			c6.87,0,9.14-2.23,10.34-8.42l3.33-17.33h14.9l-3.34,17.42c-0.46,2.42-1.1,4.74-1.88,6.78c1.44,1.06,3.86,1.55,7.34,1.55
			c7.46,0,9.67-1.94,10.91-8.42l4.26-22.17h14.91l-4.28,22.26c-0.49,2.52-1.1,4.74-1.89,6.78c1.42,1.16,3.77,1.55,7.26,1.55
			c7.46,0,9.66-1.94,10.91-8.42L333.25,396.29z"/>
		<linearGradient id="SVGID_7_" gradientUnits="userSpaceOnUse" x1="19.9731" y1="-58.2935" x2="683.8889" y2="592.8897">
			<stop  offset="0" style="stop-color:#7F1710"/>
			<stop  offset="1" style="stop-color:#BE1818"/>
		</linearGradient>
		<path class="st6" d="M457.34,378.29c0.9-4.65,4.82-7.94,9.27-7.94c4.46,0,7.11,3.3,6.22,7.94c-0.9,4.64-4.82,7.94-9.27,7.94
			C459.1,386.22,456.45,382.93,457.34,378.29z"/>
		<linearGradient id="SVGID_8_" gradientUnits="userSpaceOnUse" x1="-25.6803" y1="-11.7474" x2="638.2355" y2="639.4357">
			<stop  offset="0" style="stop-color:#7F1710"/>
			<stop  offset="1" style="stop-color:#BE1818"/>
		</linearGradient>
		<path class="st7" d="M461.95,394.06c-15.39,0-29.94,11.23-32.8,26.14c-0.82,4.26-0.6,8.13,0.59,11.52h-60.42l11.34-59.06h-14.9
			l-13.93,72.51h122.37l8.62-44.82C476.55,396.68,469.41,394.06,461.95,394.06z M461.89,431.73h-10.75
			c-5.49-1.17-8.19-5.71-7.06-11.62c1.39-7.26,7.83-12.58,15.48-12.58c2.23,0,4.13,0.19,6.75,1.17L461.89,431.73z"/>
	</g>
	<linearGradient id="SVGID_9_" gradientUnits="userSpaceOnUse" x1="-897.2363" y1="-969.933" x2="831.0088" y2="758.3121">
		<stop  offset="0" style="stop-color:#7F1710"/>
		<stop  offset="1" style="stop-color:#BE1818"/>
	</linearGradient>
	<path class="st8" d="M430.75,155.98c6.41,54.55-20.35,105.35-64.33,132.22c-0.01,0.01-0.01,0.01-0.01,0.01
		c-2.23,1.06-4.41,2.07-6.3,3c-2.7,1.31-5.61,3.11-9.14,5.12c-5.19,2.97-11.69,6.4-20.74,9.43c-3.82,1.28-21.06,6.92-44.72,9.08
		c-3.56,0.33-19.8,0.76-41.07-0.21c-7.98-0.36-15.99-1.78-23.84-3.39c-9.57-1.97-19.08-4.38-28.45-7.14
		c-7.54-2.22-14.89-5.15-22.25-7.97c-3.3-1.26-6.42-2.99-9.54-4.95c5.39,1.09,10.76,2.32,16.18,3.24c4.64,0.79,9.39,1.01,14.01,1.86
		c11.32,2.08,22.66,2.85,34.06,1.09c2.89-0.45,5.65-1.68,8.85-2.67c-3.74-3.85-7.93-3.78-11.99-3.96
		c-13.98-0.64-27.63-3.3-40.55-8.41c-8.83-3.49-17.48-7.94-25.32-13.29c-8.37-5.71-15.69-12.83-21.96-21.12
		c-6.17-8.17-10.44-17.18-15.13-26.13c-6.2-11.86-14.81-21.73-26.57-28.96c-6.93-4.26-14.42-6.75-21.65-10.07
		c-1.09-0.49-2.42-0.43-3.6-0.75c-13.42-3.66-27.14-4.4-40.98-4.26c-6.36,0.06-12.73-0.2-19.09-0.31c-0.17-0.17-0.34-0.36-0.5-0.54
		c7.9-4.91,15.77-9.82,23.68-14.7c12.63-7.79,26.28-13.06,40.39-17.61c14.17-4.58,28.52-7.26,43.26-6.66
		c6.73,0.28,13.66,2.1,19.49,6.03c5.67,3.83,11.39,7.69,16.44,12.26c3.54,3.2,9.59,11.11,9.63,11.1
		c-1.48-8.36-2.23-16.96-4.81-24.97c-1.27-3.94-5.6-7.19-9.12-10.04c-4.18-3.39-8.74-6.52-13.57-8.84
		c-4.75-2.29-10.04-3.47-15.12-5.03c-13.53-4.15-27.09-2.06-40.64-0.13c-0.64,0.09-1.28,0.15-2.62-0.44
		c1.43-1.81,2.81-3.66,4.3-5.43c6.22-7.35,14.81-11.56,22.6-16.82c1.01-0.68,2.22-1.05,3.32-1.61c10.3-5.21,21.06-9.12,32.02-12.81
		c15.69-5.27,31.62-7.28,47.99-6.76c2.07,0.06,4.14,0.59,6.22,0.9c4.49,0.7,7.98-1.12,10.14-4.86c0.75-1.28,0.73-4.25-0.16-5
		c-2.9-2.44-6.34-4.27-9.65-6.2c-1.4-0.82-2.96-1.36-5.3-2.4c3.33-1.24,5.82-2.14,8.31-3.06c13.4-4.96,27.32-7.92,41.36-10.21
		c11.72-1.91,23.45-3.86,35.21-5.46c3.37-0.46,6.74-0.89,10.12-1.28c1.67-0.2,3.32-0.38,4.99-0.55c3.02-0.31,6.08-0.54,9.14-0.66
		c0.02,0,0.03,0,0.05,0C362.67,34.7,422.53,86.03,430.75,155.98z"/>
	<path class="st9" d="M402.5,127.57C382.13,81.31,340,54.01,293.39,53.21c-20.43-0.36-40.17,4.4-57.74,13.68
		c-0.1,0.04-0.18,0.09-0.27,0.16c-8.88,4.7-17.2,10.57-24.78,17.53c-0.01,0-0.01,0.01-0.02,0.02l18.69,20.3l0.02-0.02l62.5,67.89
		l-66.75,61.46l-1.04,0.95c-0.07-0.06-0.14-0.14-0.21-0.22c-16.13-17.45-24.76-40.06-24.35-63.9c0.27-15.14,4.17-29.65,11.27-42.56
		l-19.49-21.16c-12.22,18.65-18.97,40.41-19.37,63.25c-0.55,31.09,10.75,60.57,31.84,83.3c0.55,0.6,1.12,1.19,1.68,1.77
		c6.48,6.71,13.61,12.56,21.26,17.5l43.5-40.05l0,0l63.94-58.87l-79.16-85.98c0.1-0.04,0.2-0.09,0.29-0.12
		c11.75-5.03,24.53-7.56,37.69-7.33c0.76,0.01,1.5,0.04,2.26,0.07c23.68,0.98,45.71,10.85,62.23,27.96
		c8.52,8.82,15.08,19.05,19.44,30.13c4.37,11.07,6.56,23.02,6.34,35.29c-0.42,24.53-10.38,47.44-28.03,64.49
		c-17.65,17.05-40.89,26.2-65.42,25.77c-3.12-0.05-6.2-0.26-9.26-0.62l-24.81,22.85c9.83,3.06,20.12,4.86,30.67,5.29
		c0.97,0.04,1.94,0.07,2.93,0.08c31.9,0.55,62.11-11.36,85.07-33.52c22.24-21.5,35.1-50.13,36.37-80.91
		C411.36,161.12,408.63,144.41,402.5,127.57z"/>
</g>
</svg>
